<svg width="355" height="89" viewBox="0 0 355 89" fill="none" xmlns="http://www.w3.org/2000/svg">
<path d="M287.015 71.5952C288.514 71.5952 289.65 71.9236 290.421 72.5804C291.206 73.2229 291.599 74.2367 291.599 75.6217V83.4176H289.692L289.157 81.8113H289.071C288.743 82.2253 288.4 82.5752 288.043 82.8607C287.701 83.132 287.301 83.3248 286.844 83.439C286.401 83.5675 285.859 83.6318 285.216 83.6318C284.531 83.6318 283.91 83.5032 283.353 83.2462C282.81 82.9892 282.382 82.5966 282.068 82.0683C281.754 81.5257 281.597 80.8475 281.597 80.0336C281.597 78.8343 282.032 77.9347 282.903 77.3351C283.788 76.7211 285.123 76.3856 286.908 76.3284L288.921 76.2642V75.6859C288.921 74.9435 288.743 74.4152 288.386 74.101C288.029 73.7869 287.529 73.6299 286.887 73.6299C286.301 73.6299 285.737 73.7155 285.195 73.8869C284.652 74.0582 284.124 74.2581 283.61 74.4866L282.753 72.6018C283.324 72.302 283.974 72.0593 284.702 71.8736C285.445 71.688 286.216 71.5952 287.015 71.5952ZM287.508 77.9776C286.323 78.0204 285.502 78.2274 285.045 78.5987C284.588 78.9556 284.36 79.4411 284.36 80.0551C284.36 80.5976 284.524 80.9903 284.852 81.233C285.181 81.4757 285.602 81.5971 286.116 81.5971C286.901 81.5971 287.565 81.3758 288.108 80.9332C288.65 80.4763 288.921 79.8052 288.921 78.9199V77.9347L287.508 77.9776Z" fill="#4EBD88"/>
<path d="M278.308 71.8092V83.4174H275.61V71.8092H278.308ZM276.959 67.333C277.359 67.333 277.709 67.4401 278.009 67.6543C278.308 67.8542 278.458 68.2183 278.458 68.7466C278.458 69.2606 278.308 69.6318 278.009 69.8603C277.709 70.0744 277.359 70.1815 276.959 70.1815C276.545 70.1815 276.188 70.0744 275.888 69.8603C275.603 69.6318 275.46 69.2606 275.46 68.7466C275.46 68.2183 275.603 67.8542 275.888 67.6543C276.188 67.4401 276.545 67.333 276.959 67.333Z" fill="#4EBD88"/>
<path d="M271.529 83.4173H268.831V67.1401H271.529V83.4173Z" fill="#4EBD88"/>
<path d="M264.75 71.8092V83.4174H262.052V71.8092H264.75ZM263.401 67.333C263.801 67.333 264.151 67.4401 264.451 67.6543C264.75 67.8542 264.9 68.2183 264.9 68.7466C264.9 69.2606 264.75 69.6318 264.451 69.8603C264.151 70.0744 263.801 70.1815 263.401 70.1815C262.987 70.1815 262.63 70.0744 262.33 69.8603C262.045 69.6318 261.902 69.2606 261.902 68.7466C261.902 68.2183 262.045 67.8542 262.33 67.6543C262.63 67.4401 262.987 67.333 263.401 67.333Z" fill="#4EBD88"/>
<path d="M254.078 71.5952C255.392 71.5952 256.377 71.9308 257.034 72.6018C257.705 73.2729 258.041 74.3581 258.041 75.8573V83.4176H255.342V76.3713C255.342 75.5146 255.185 74.8721 254.871 74.4437C254.557 74.0011 254.057 73.7798 253.372 73.7798C252.429 73.7798 251.758 74.0868 251.358 74.7007C250.959 75.3147 250.759 76.2071 250.759 77.3779V83.4176H248.06V76.3713C248.06 75.8002 247.989 75.3218 247.846 74.9363C247.703 74.5508 247.482 74.2652 247.182 74.0796C246.897 73.8797 246.525 73.7798 246.068 73.7798C245.426 73.7798 244.912 73.9368 244.526 74.251C244.141 74.5508 243.87 74.9934 243.712 75.5788C243.555 76.1642 243.477 76.8853 243.477 77.742V83.4176H240.778V71.8094H242.856L243.241 73.33H243.391C243.634 72.9302 243.927 72.6018 244.269 72.3448C244.626 72.0878 245.019 71.9022 245.447 71.788C245.89 71.6595 246.333 71.5952 246.775 71.5952C247.646 71.5952 248.381 71.7451 248.981 72.045C249.581 72.3305 250.031 72.7803 250.33 73.3943H250.545C250.902 72.766 251.401 72.3091 252.044 72.0236C252.701 71.738 253.379 71.5952 254.078 71.5952Z" fill="#4EBD88"/>
<path d="M232.184 71.5952C233.683 71.5952 234.818 71.9236 235.589 72.5804C236.374 73.2229 236.767 74.2367 236.767 75.6217V83.4176H234.861L234.325 81.8113H234.24C233.911 82.2253 233.569 82.5752 233.212 82.8607C232.869 83.132 232.469 83.3248 232.012 83.439C231.57 83.5675 231.027 83.6318 230.385 83.6318C229.699 83.6318 229.078 83.5032 228.521 83.2462C227.979 82.9892 227.55 82.5966 227.236 82.0683C226.922 81.5257 226.765 80.8475 226.765 80.0336C226.765 78.8343 227.201 77.9347 228.072 77.3351C228.957 76.7211 230.292 76.3856 232.077 76.3284L234.09 76.2642V75.6859C234.09 74.9435 233.911 74.4152 233.554 74.101C233.197 73.7869 232.698 73.6299 232.055 73.6299C231.47 73.6299 230.906 73.7155 230.363 73.8869C229.821 74.0582 229.292 74.2581 228.778 74.4866L227.922 72.6018C228.493 72.302 229.142 72.0593 229.871 71.8736C230.613 71.688 231.384 71.5952 232.184 71.5952ZM232.676 77.9776C231.491 78.0204 230.67 78.2274 230.213 78.5987C229.756 78.9556 229.528 79.4411 229.528 80.0551C229.528 80.5976 229.692 80.9903 230.021 81.233C230.349 81.4757 230.77 81.5971 231.284 81.5971C232.07 81.5971 232.733 81.3758 233.276 80.9332C233.819 80.4763 234.09 79.8052 234.09 78.9199V77.9347L232.676 77.9776Z" fill="#4EBD88"/>
<path d="M224.998 73.8439H222.192V83.4175H219.494V73.8439H217.63V72.5589L219.494 71.7878V70.9954C219.494 69.9959 219.651 69.2106 219.965 68.6395C220.279 68.0684 220.736 67.6614 221.336 67.4187C221.935 67.1617 222.642 67.0332 223.456 67.0332C224.027 67.0332 224.541 67.0832 224.998 67.1831C225.455 67.2688 225.833 67.3687 226.133 67.483L225.448 69.4962C225.205 69.4248 224.934 69.3606 224.634 69.3034C224.348 69.232 224.034 69.1964 223.691 69.1964C223.177 69.1964 222.799 69.3606 222.556 69.689C222.314 70.0174 222.192 70.4743 222.192 71.0597V71.8093H224.998V73.8439Z" fill="#4EBD88"/>
<path d="M204.192 71.5952C205.691 71.5952 206.826 71.9236 207.597 72.5804C208.382 73.2229 208.775 74.2367 208.775 75.6217V83.4176H206.869L206.333 81.8113H206.248C205.919 82.2253 205.577 82.5752 205.22 82.8607C204.877 83.132 204.477 83.3248 204.02 83.439C203.578 83.5675 203.035 83.6318 202.392 83.6318C201.707 83.6318 201.086 83.5032 200.529 83.2462C199.987 82.9892 199.558 82.5966 199.244 82.0683C198.93 81.5257 198.773 80.8475 198.773 80.0336C198.773 78.8343 199.208 77.9347 200.079 77.3351C200.965 76.7211 202.3 76.3856 204.084 76.3284L206.098 76.2642V75.6859C206.098 74.9435 205.919 74.4152 205.562 74.101C205.205 73.7869 204.706 73.6299 204.063 73.6299C203.478 73.6299 202.914 73.7155 202.371 73.8869C201.828 74.0582 201.3 74.2581 200.786 74.4866L199.929 72.6018C200.501 72.302 201.15 72.0593 201.878 71.8736C202.621 71.688 203.392 71.5952 204.192 71.5952ZM204.684 77.9776C203.499 78.0204 202.678 78.2274 202.221 78.5987C201.764 78.9556 201.536 79.4411 201.536 80.0551C201.536 80.5976 201.7 80.9903 202.028 81.233C202.357 81.4757 202.778 81.5971 203.292 81.5971C204.077 81.5971 204.741 81.3758 205.284 80.9332C205.826 80.4763 206.098 79.8052 206.098 78.9199V77.9347L204.684 77.9776Z" fill="#4EBD88"/>
<path d="M189.362 83.6315C188.02 83.6315 186.928 83.1317 186.085 82.1323C185.257 81.1185 184.843 79.6193 184.843 77.6346C184.843 75.65 185.264 74.1507 186.107 73.137C186.949 72.109 188.056 71.5949 189.427 71.5949C189.998 71.5949 190.497 71.6735 190.926 71.8305C191.368 71.9733 191.747 72.1732 192.061 72.4302C192.375 72.6872 192.639 72.9728 192.853 73.2869H192.982C192.939 73.087 192.896 72.78 192.853 72.366C192.81 71.9519 192.789 71.5664 192.789 71.2094V67.1401H195.488V83.4173H193.389L192.896 81.8967H192.789C192.575 82.2108 192.311 82.5035 191.997 82.7748C191.683 83.0318 191.311 83.2388 190.883 83.3959C190.455 83.5529 189.948 83.6315 189.362 83.6315ZM190.176 81.4469C191.176 81.4469 191.882 81.1613 192.296 80.5902C192.711 80.0191 192.918 79.1553 192.918 77.9987V77.656C192.918 76.3996 192.718 75.4429 192.318 74.7861C191.932 74.1293 191.204 73.8009 190.133 73.8009C189.319 73.8009 188.691 74.1436 188.249 74.829C187.806 75.5 187.585 76.4495 187.585 77.6775C187.585 78.9054 187.806 79.8406 188.249 80.4831C188.691 81.1256 189.334 81.4469 190.176 81.4469Z" fill="#4EBD88"/>
<path d="M165.258 71.8091H168.192L170.505 78.3628C170.605 78.6483 170.691 78.9268 170.762 79.1981C170.848 79.4551 170.919 79.7192 170.976 79.9905C171.033 80.2618 171.076 80.5331 171.105 80.8044H171.19C171.248 80.4474 171.333 80.0548 171.447 79.6264C171.576 79.1981 171.704 78.7769 171.833 78.3628L174.06 71.8091H176.973L172.026 84.9593C171.74 85.7161 171.376 86.3657 170.933 86.9083C170.505 87.4509 169.991 87.8578 169.391 88.1291C168.806 88.4146 168.142 88.5574 167.4 88.5574C167.057 88.5574 166.75 88.536 166.479 88.4932C166.222 88.4646 165.993 88.4289 165.793 88.3861V86.2444C165.95 86.2729 166.136 86.3015 166.35 86.33C166.579 86.3586 166.814 86.3729 167.057 86.3729C167.499 86.3729 167.878 86.2801 168.192 86.0944C168.52 85.9231 168.792 85.6804 169.006 85.3663C169.234 85.0521 169.42 84.7023 169.563 84.3168L169.905 83.3744L165.258 71.8091Z" fill="#4EBD88"/>
<path d="M152.205 71.5952C153.704 71.5952 154.839 71.9236 155.61 72.5804C156.395 73.2229 156.788 74.2367 156.788 75.6217V83.4176H154.882L154.346 81.8113H154.261C153.932 82.2253 153.59 82.5752 153.233 82.8607C152.89 83.132 152.49 83.3248 152.033 83.439C151.591 83.5675 151.048 83.6318 150.406 83.6318C149.72 83.6318 149.099 83.5032 148.542 83.2462C148 82.9892 147.571 82.5966 147.257 82.0683C146.943 81.5257 146.786 80.8475 146.786 80.0336C146.786 78.8343 147.222 77.9347 148.093 77.3351C148.978 76.7211 150.313 76.3856 152.098 76.3284L154.111 76.2642V75.6859C154.111 74.9435 153.932 74.4152 153.575 74.101C153.218 73.7869 152.719 73.6299 152.076 73.6299C151.491 73.6299 150.927 73.7155 150.384 73.8869C149.842 74.0582 149.313 74.2581 148.799 74.4866L147.943 72.6018C148.514 72.302 149.163 72.0593 149.892 71.8736C150.634 71.688 151.405 71.5952 152.205 71.5952ZM152.697 77.9776C151.512 78.0204 150.691 78.2274 150.234 78.5987C149.777 78.9556 149.549 79.4411 149.549 80.0551C149.549 80.5976 149.713 80.9903 150.042 81.233C150.37 81.4757 150.791 81.5971 151.305 81.5971C152.09 81.5971 152.754 81.3758 153.297 80.9332C153.84 80.4763 154.111 79.8052 154.111 78.9199V77.9347L152.697 77.9776Z" fill="#4EBD88"/>
<path d="M144.037 71.5952C144.208 71.5952 144.408 71.6024 144.637 71.6166C144.865 71.6309 145.058 71.6595 145.215 71.7023L144.979 74.2081C144.851 74.1796 144.68 74.1582 144.465 74.1439C144.266 74.1153 144.087 74.101 143.93 74.101C143.502 74.101 143.088 74.1724 142.688 74.3152C142.302 74.4437 141.952 74.6436 141.638 74.9149C141.339 75.1719 141.096 75.5074 140.91 75.9215C140.739 76.3356 140.653 76.8282 140.653 77.3993V83.4176H137.955V71.8094H140.032L140.418 73.8226H140.546C140.775 73.4085 141.06 73.0373 141.403 72.7089C141.745 72.3662 142.138 72.095 142.581 71.8951C143.038 71.6952 143.523 71.5952 144.037 71.5952Z" fill="#4EBD88"/>
<path d="M133.122 81.4686C133.465 81.4686 133.793 81.4401 134.107 81.3829C134.421 81.3116 134.714 81.233 134.985 81.1474V83.1606C134.7 83.2891 134.328 83.3962 133.872 83.4818C133.415 83.5818 132.936 83.6318 132.437 83.6318C131.78 83.6318 131.18 83.5247 130.638 83.3105C130.109 83.0821 129.681 82.6965 129.353 82.154C129.038 81.6114 128.881 80.8547 128.881 79.8837V73.844H127.318V72.6661L129.031 71.7237L129.888 69.2607H131.58V71.8094H134.878V73.844H131.58V79.8623C131.58 80.4049 131.723 80.8118 132.008 81.0831C132.294 81.3401 132.665 81.4686 133.122 81.4686Z" fill="#4EBD88"/>
<path d="M120.464 71.5952C121.763 71.5952 122.777 71.9308 123.505 72.6018C124.248 73.2729 124.619 74.3581 124.619 75.8573V83.4176H121.92V76.3927C121.92 75.5217 121.749 74.8721 121.406 74.4437C121.064 74.0011 120.521 73.7798 119.779 73.7798C118.693 73.7798 117.951 74.1225 117.551 74.8078C117.151 75.4789 116.952 76.4569 116.952 77.742V83.4176H114.253V71.8094H116.33L116.716 73.33H116.866C117.123 72.9302 117.437 72.6018 117.808 72.3448C118.179 72.0878 118.594 71.9022 119.05 71.788C119.507 71.6595 119.978 71.5952 120.464 71.5952Z" fill="#4EBD88"/>
<path d="M105.847 71.5952C106.889 71.5952 107.782 71.8094 108.524 72.2377C109.281 72.6518 109.866 73.2515 110.28 74.0368C110.694 74.8078 110.901 75.7502 110.901 76.8639V78.2346H103.234C103.263 79.2912 103.555 80.1122 104.112 80.6976C104.669 81.2687 105.44 81.5543 106.425 81.5543C107.182 81.5543 107.853 81.4829 108.439 81.3401C109.038 81.183 109.652 80.9617 110.28 80.6762V82.8393C109.709 83.1106 109.117 83.3105 108.503 83.439C107.889 83.5675 107.153 83.6318 106.297 83.6318C105.169 83.6318 104.162 83.4176 103.277 82.9892C102.406 82.5466 101.721 81.8827 101.221 80.9974C100.735 80.1122 100.493 79.0127 100.493 77.6992C100.493 76.3713 100.714 75.2576 101.157 74.3581C101.614 73.4442 102.242 72.7589 103.041 72.302C103.841 71.8308 104.776 71.5952 105.847 71.5952ZM105.847 73.587C105.133 73.587 104.548 73.8226 104.091 74.2938C103.648 74.7507 103.384 75.4361 103.298 76.3499H108.289C108.289 75.8073 108.196 75.329 108.01 74.9149C107.839 74.5008 107.575 74.1796 107.218 73.9511C106.861 73.7084 106.404 73.587 105.847 73.587Z" fill="#4EBD88"/>
<path d="M97.1086 71.8091V83.4173H94.9883L94.6242 81.9181H94.4957C94.2529 82.3179 93.9388 82.6462 93.5533 82.9033C93.1678 83.146 92.7466 83.3245 92.2897 83.4387C91.8328 83.5672 91.3616 83.6314 90.8762 83.6314C90.0195 83.6314 89.277 83.4815 88.6487 83.1817C88.0205 82.8818 87.5422 82.4249 87.2138 81.811C86.8854 81.1827 86.7212 80.376 86.7212 79.3908V71.8091H89.4198V78.8554C89.4198 79.7121 89.5911 80.3617 89.9338 80.8044C90.2765 81.2327 90.819 81.4469 91.5615 81.4469C92.2897 81.4469 92.8608 81.297 93.2749 80.9971C93.689 80.683 93.9817 80.2332 94.153 79.6478C94.3243 79.0624 94.41 78.3414 94.41 77.4847V71.8091H97.1086Z" fill="#4EBD88"/>
<path d="M80.138 83.6318C79.0385 83.6318 78.0819 83.4247 77.268 83.0106C76.4685 82.5823 75.8473 81.9326 75.4047 81.0617C74.9764 80.1764 74.7622 79.0484 74.7622 77.6777C74.7622 76.2499 74.9978 75.0934 75.469 74.2081C75.9544 73.3086 76.6184 72.6518 77.4608 72.2377C78.3032 71.8094 79.267 71.5952 80.3521 71.5952C81.0803 71.5952 81.73 71.6666 82.3011 71.8094C82.8722 71.9522 83.3577 72.1235 83.7575 72.3234L82.965 74.4437C82.5224 74.2724 82.0798 74.1296 81.6372 74.0154C81.1945 73.8869 80.7662 73.8226 80.3521 73.8226C79.7096 73.8226 79.1742 73.9654 78.7458 74.251C78.3318 74.5365 78.0248 74.9649 77.8249 75.536C77.625 76.0929 77.525 76.7996 77.525 77.6563C77.525 78.4845 77.625 79.1769 77.8249 79.7338C78.0391 80.2907 78.3532 80.7119 78.7672 80.9974C79.1813 81.2687 79.6953 81.4044 80.3093 81.4044C80.9661 81.4044 81.5444 81.3258 82.0441 81.1688C82.5438 81.0117 83.015 80.7975 83.4576 80.5262V82.8607C83.015 83.132 82.5367 83.3248 82.0227 83.439C81.5229 83.5675 80.8947 83.6318 80.138 83.6318Z" fill="#4EBD88"/>
<path d="M67.2872 71.5952C68.5865 71.5952 69.6003 71.9308 70.3285 72.6018C71.0709 73.2729 71.4422 74.3581 71.4422 75.8573V83.4176H68.7436V76.3927C68.7436 75.5217 68.5722 74.8721 68.2296 74.4437C67.8869 74.0011 67.3443 73.7798 66.6018 73.7798C65.5167 73.7798 64.7742 74.1225 64.3744 74.8078C63.9746 75.4789 63.7748 76.4569 63.7748 77.742V83.4176H61.0762V71.8094H63.1537L63.5392 73.33H63.6891C63.9461 72.9302 64.2602 72.6018 64.6314 72.3448C65.0027 72.0878 65.4167 71.9022 65.8737 71.788C66.3306 71.6595 66.8017 71.5952 67.2872 71.5952Z" fill="#4EBD88"/>
<path d="M52.6707 71.5952C53.713 71.5952 54.6054 71.8094 55.3479 72.2377C56.1046 72.6518 56.6901 73.2515 57.1041 74.0368C57.5182 74.8078 57.7252 75.7502 57.7252 76.8639V78.2346H50.0578C50.0864 79.2912 50.3791 80.1122 50.9359 80.6976C51.4928 81.2687 52.2638 81.5543 53.249 81.5543C54.0057 81.5543 54.6768 81.4829 55.2622 81.3401C55.8619 81.183 56.4759 80.9617 57.1041 80.6762V82.8393C56.533 83.1106 55.9404 83.3105 55.3265 83.439C54.7125 83.5675 53.9772 83.6318 53.1205 83.6318C51.9925 83.6318 50.9859 83.4176 50.1007 82.9892C49.2297 82.5466 48.5443 81.8827 48.0446 80.9974C47.5591 80.1122 47.3164 79.0127 47.3164 77.6992C47.3164 76.3713 47.5377 75.2576 47.9803 74.3581C48.4372 73.4442 49.0655 72.7589 49.8651 72.302C50.6646 71.8308 51.5999 71.5952 52.6707 71.5952ZM52.6707 73.587C51.9568 73.587 51.3714 73.8226 50.9145 74.2938C50.4719 74.7507 50.2077 75.4361 50.1221 76.3499H55.1123C55.1123 75.8073 55.0195 75.329 54.8339 74.9149C54.6625 74.5008 54.3984 74.1796 54.0414 73.9511C53.6845 73.7084 53.2276 73.587 52.6707 73.587Z" fill="#4EBD88"/>
<path d="M32.2487 22.8077H10.4686V4.42871H2.27197V46.9433H10.4686V28.4376H32.2487V46.9433H40.4453V4.42871H32.2487V22.8077Z" fill="#4EBD88"/>
<path d="M76.6955 28.3111C76.8166 30.7044 76.5491 33.1015 75.9033 35.4092C75.3604 36.7923 74.4733 38.014 73.326 38.9582C70.8122 40.9207 67.6819 41.9242 64.4957 41.789C62.2144 41.8427 59.9527 41.3578 57.894 40.3736C56.1475 39.5615 54.6782 38.2538 53.669 36.6133C52.7606 35.05 52.3064 32.2685 52.3064 28.2688V4.18604H46.2434V28.2583C46.153 30.787 46.3801 33.3172 46.9195 35.7894C47.3043 37.2209 47.8911 38.5902 48.6623 39.856C49.3698 40.9737 50.2342 41.9839 51.229 42.8558C54.602 45.7359 59.0454 47.1795 64.559 47.1865C70.0727 47.1935 74.4738 45.7429 77.7623 42.8347C78.7616 41.9764 79.6299 40.9764 80.3396 39.8666C81.1185 38.572 81.7122 37.1747 82.1036 35.7155C82.6569 33.2916 82.8947 30.8064 82.8113 28.3216V4.18604H76.6955V28.3111Z" fill="#4EBD88"/>
<path d="M104.697 4.3125L86.4346 47.0595H92.6876L97.969 34.4582H116.105L121.777 47.0595H128.009L108.996 4.3125H104.697ZM100.472 29.0502L106.81 13.6499L113.665 29.0502H100.472Z" fill="#4EBD88"/>
<path d="M139.807 37.3529C138.245 35.8817 137.014 34.0954 136.194 32.1123C135.375 30.1293 134.986 27.9948 135.054 25.8502C135.001 23.6946 135.404 21.5521 136.235 19.5627C137.067 17.5733 138.309 15.7818 139.881 14.3053C141.498 12.775 143.402 11.5795 145.483 10.7873C147.564 9.99518 149.781 9.62207 152.007 9.68941C157.152 9.79416 162.179 11.2513 166.583 13.9145V7.40789C161.906 5.25826 156.845 4.06936 151.701 3.91166C148.696 3.83514 145.707 4.35596 142.905 5.44388C140.104 6.5318 137.546 8.16517 135.381 10.2492C133.24 12.2381 131.543 14.657 130.402 17.3474C129.26 20.0378 128.7 22.9389 128.758 25.8608C128.735 29.6772 129.735 33.4302 131.653 36.7297C133.515 40.0123 136.226 42.7339 139.501 44.6095C143.206 46.6129 147.374 47.6005 151.584 47.4719C156.962 47.5804 162.278 46.3229 167.037 43.8173V37.11C162.58 40.1373 157.331 41.7867 151.943 41.8526C149.724 41.9369 147.51 41.5828 145.427 40.8107C143.345 40.0386 141.435 38.8636 139.807 37.3529Z" fill="#4EBD88"/>
<path d="M206.563 22.2799H182.681V3.90088H176.597V47.4612H182.681V28.966H206.563V47.4612H212.647V3.90088H206.563V22.2799Z" fill="#4EBD88"/>
<path d="M230.667 3.6792H224.361V47.6937H230.667V3.6792Z" fill="#4EBD88"/>
<path d="M241.135 9.25573H256.229V47.7248H262.567V9.25573H277.914V3.64697H241.135V9.25573Z" fill="#4EBD88"/>
<path d="M349.931 36.063C349.931 35.8517 349.931 35.6405 349.931 35.4292C349.931 30.6338 347.336 26.6904 342.146 23.5991L337.499 20.8528C335.804 19.9383 334.27 18.7539 332.957 17.346C332.203 16.502 331.724 15.4482 331.584 14.3251C331.66 13.717 331.868 13.1327 332.192 12.6129C332.517 12.0931 332.951 11.6501 333.464 11.3147C334.893 10.3518 336.589 9.86397 338.312 9.92046C341.833 9.92046 345.128 11.3922 348.199 14.3356V6.37142C345.32 4.4075 341.913 3.36501 338.428 3.38219C335.118 3.24854 331.88 4.38171 329.376 6.55098C328.233 7.57174 327.328 8.83124 326.726 10.2404C326.124 11.6495 325.838 13.1738 325.89 14.7053C325.89 14.8321 325.89 14.9588 325.89 15.0856C325.89 15.2123 325.89 15.5398 325.89 15.7616C325.859 17.8801 326.507 19.953 327.739 21.6767C329.438 23.81 331.541 25.5868 333.928 26.9052L338.555 29.7148C342.026 31.8837 343.882 34.1617 344.121 36.5489C344.066 37.2229 343.872 37.8783 343.552 38.4743C343.232 39.0704 342.793 39.5942 342.262 40.0134C340.918 41.1003 339.227 41.6665 337.499 41.6083C333.175 41.6083 329.372 39.524 326.091 35.3553V44.1434C329.376 46.6766 333.413 48.0408 337.562 48.0199C340.827 48.1662 344.019 47.0288 346.456 44.8511C347.606 43.7912 348.512 42.4944 349.112 41.05C349.712 39.6057 349.992 38.0483 349.931 36.4855C349.931 36.3587 349.931 36.232 349.931 36.1052V36.063Z" fill="#4EBD88"/>
<path d="M35.8821 1.5874H28.0235V19.8079H11.9788V4.73507L10.7536 3.6788L8.57767 1.92541L8.16572 1.5874H0.307129V46.2356L3.47592 50.1016H12.0105V31.0888H28.0235V46.2356L31.1923 50.1016H39.748V4.73507L36.294 1.92541L35.8821 1.5874ZM35.5441 45.9504H29.122V27.3391H7.79603V45.9188H1.36339V2.68592H7.79603V20.9065H29.122V2.68592H35.5441V45.9504Z" fill="#A0FFD2"/>
<path d="M80.4665 1.92541L80.0546 1.5874H72.3122V27.994C72.3513 29.6815 72.1774 31.3672 71.7946 33.0112C71.4816 34.1831 70.9034 35.2673 70.1046 36.18C69.3274 37.0788 68.3607 37.7941 67.274 38.2744C66.1873 38.7547 65.0076 38.9882 63.8198 38.958C62.2123 38.9546 60.6357 38.5166 59.2568 37.6905C57.7751 36.8138 56.6325 35.4629 56.014 33.8562C55.3783 31.9015 55.1132 29.8453 55.2324 27.7933V4.86182L52.0636 1.98878L51.958 1.92541L51.5777 1.5874H43.6135V29.6206C43.4843 32.8681 43.9203 36.1133 44.9021 39.2115C46.1913 42.6075 48.5202 45.5094 51.5566 47.5032C55.0492 49.7563 59.1486 50.8844 63.3022 50.7353C66.6142 50.7586 69.896 50.1044 72.9459 48.8129C75.9503 47.5224 78.5595 45.4598 80.5088 42.8345C81.7379 41.2191 82.655 39.3886 83.2128 37.437C83.8517 34.904 84.1396 32.2953 84.0684 29.684V4.86182L83.5508 4.43931L80.4665 1.92541ZM79.8644 29.0186C79.8644 33.2436 79.2518 36.5286 78.0371 38.8418C76.6937 41.2537 74.6544 43.2046 72.1854 44.44C70.1909 45.4646 68.0245 46.1127 65.795 46.3518C64.7824 46.4773 63.7628 46.5372 62.7424 46.5314C56.9963 46.5314 52.4685 44.7287 49.1589 41.1233C47.5259 39.4294 46.3233 37.3683 45.6521 35.1132C44.933 32.1728 44.6027 29.1507 44.6698 26.1244V2.68592H51.0073V27.4764C51.0073 34.8843 53.8733 39.1094 59.6053 40.1516C60.5991 40.3261 61.6066 40.4109 62.6157 40.4051C67.1858 40.4051 70.3862 38.6446 72.2171 35.1237C72.9917 33.6591 73.379 31.3423 73.379 28.1735V2.68592H79.8328L79.8644 29.0186Z" fill="#A0FFD2"/>
<path d="M109.947 1.271H101.983L84.8081 46.4896L88.3888 50.102H96.0045L99.5007 40.6907H115.133L117.468 47.1445L120.827 50.102H130.988L114.383 3.51027L109.947 1.271ZM118.154 45.9192L114.986 36.6981H96.5749L93.0786 45.9192H86.1918L86.5298 45.0425L102.765 2.34838H109.651L109.789 2.72864L124.946 45.9192H118.154Z" fill="#A0FFD2"/>
<path d="M106.103 11.749L99.7652 28.2056L99.7018 28.3535L98.7935 30.7195H112.8L111.976 28.3957L106.694 13.4919L106.103 11.749ZM110.74 28.3957L111.173 29.6632H103.589L104.054 28.3957L107.518 19.0267L110.74 28.3957Z" fill="#A0FFD2"/>
<path d="M155.504 39.2746C153.702 39.3613 151.901 39.0749 150.214 38.4333C148.527 37.7917 146.991 36.8088 145.702 35.546C144.469 34.2541 143.508 32.7267 142.879 31.0553C142.249 29.3838 141.962 27.6025 142.037 25.8178C142.037 21.4801 143.41 18.0614 146.156 15.5615C147.291 14.5246 148.609 13.7079 150.043 13.1533C151.758 12.5657 153.565 12.2938 155.377 12.3505C161.176 12.4745 166.865 13.9502 171.992 16.66V6.02348L168.655 3.04482C164.323 1.64967 159.801 0.936971 155.251 0.932292C149.113 0.747693 143.136 2.91245 138.541 6.98468C138.171 7.32268 137.801 7.67125 137.484 8.04094C132.928 12.6603 130.654 18.586 130.661 25.8178C130.616 29.3997 131.273 32.9557 132.594 36.2854C133.762 39.2671 135.564 41.9594 137.875 44.1757C138.701 44.9457 139.583 45.6519 140.516 46.2882C142.096 47.3793 143.802 48.2766 145.596 48.9606C148.63 50.1208 151.854 50.7047 155.103 50.6823C161.058 50.589 166.946 49.4114 172.478 47.2072V39.7183L168.581 36.5495C164.398 38.1607 159.982 39.0811 155.504 39.2746ZM168.306 44.313L167.387 44.5876C163.582 45.7974 159.623 46.4554 155.631 46.5417C153.226 46.5599 150.828 46.2832 148.491 45.7178C146.5 45.2422 144.585 44.4958 142.797 43.4997C141.225 42.5902 139.77 41.4905 138.467 40.2253C137.254 39.0534 136.19 37.7374 135.298 36.3065C133.729 33.7272 132.638 30.8862 132.076 27.9198C131.851 26.6967 131.734 25.456 131.728 24.2123C131.73 22.0344 132.061 19.8693 132.71 17.7902C133.37 15.6423 134.368 13.6135 135.667 11.7801C136.986 9.89124 138.569 8.20156 140.368 6.76286C141.421 5.94158 142.557 5.23349 143.758 4.65034C144.763 4.14648 145.8 3.71238 146.864 3.35113C149.451 2.46186 152.166 2.0016 154.902 1.98856C159.275 1.97431 163.625 2.61154 167.81 3.87927V10.4387C167.503 10.3436 167.208 10.2485 166.912 10.1746C163.202 8.97412 159.339 8.31249 155.441 8.20994C153.611 8.19344 151.787 8.40995 150.012 8.85426C148.769 9.15708 147.567 9.60743 146.431 10.1957C146.209 10.3119 145.998 10.4387 145.786 10.5654C144.648 11.2635 143.605 12.1048 142.681 13.0688C141.833 13.941 141.098 14.917 140.495 15.9735C139.954 16.9569 139.508 17.9897 139.164 19.0578C138.848 19.9991 138.604 20.963 138.435 21.9414C138.304 22.7269 138.237 23.5216 138.234 24.318C138.237 25.1072 138.304 25.895 138.435 26.6734C138.604 27.6425 138.851 28.5963 139.174 29.5253C139.537 30.5863 139.99 31.6146 140.526 32.5991C141.126 33.6675 141.861 34.6544 142.713 35.5355C143.63 36.4907 144.662 37.3281 145.786 38.0282C147.079 38.812 148.482 39.396 149.948 39.7605C151.7 40.2175 153.504 40.4413 155.314 40.426C159.078 40.3259 162.805 39.6637 166.373 38.4613C166.711 38.3663 167.049 38.2606 167.429 38.1339C167.81 38.0071 168.042 37.9437 168.348 37.8381L168.306 44.313Z" fill="#A0FFD2"/>
<path d="M203.331 1.58704V19.8076H187.265V4.73471L183.452 1.56592H175.646V46.2353L177.072 47.9887L178.784 50.1012H187.265V31.0885H203.31V46.2353L203.606 46.5944L204.736 47.9887L206.458 50.1012H215.013V4.73471L211.169 1.56592L203.331 1.58704ZM210.852 45.9501H204.43V27.3387H183.093V45.9184H176.756V2.68556H183.093V20.9061H204.43V2.68556H210.852V45.9501Z" fill="#A0FFD2"/>
<path d="M221.066 1.54487V46.3515L224.098 50.1013H232.685V4.68197L228.936 1.51318L221.066 1.54487ZM228.46 45.9079H222.123V2.60113H228.46V45.9079Z" fill="#A0FFD2"/>
<path d="M237.565 1.54541V9.47795L241.029 13.1326H253.039V46.3521L256.282 50.1018H264.859V13.1326H280.703V4.87264L276.795 1.54541H237.565ZM276.488 8.93925H260.644V45.9085H254.127V8.93925H238.674V2.60167H276.488V8.93925Z" fill="#A0FFD2"/>
<path d="M354.704 34.0673C354.632 33.4058 354.476 32.7562 354.239 32.1343L353.584 30.5077C353.317 29.9151 352.96 29.3667 352.528 28.881C352 28.2262 351.577 27.7297 351.282 27.3811C350.754 26.7964 350.19 26.246 349.592 25.7334L347.68 24.0328C347.257 23.6525 346.476 22.9765 345.346 22.0153C344.839 21.6034 344.289 21.1069 343.613 20.5577C342.937 20.0084 342.483 19.5859 342.166 19.3324L341.11 18.4029C340.813 18.1476 340.538 17.8685 340.286 17.5685C340.131 17.3713 339.962 17.1389 339.779 16.8713C339.618 16.6487 339.5 16.398 339.43 16.1319C339.378 15.8855 339.353 15.634 339.356 15.382C339.336 14.9039 339.436 14.4284 339.646 13.9987C339.857 13.5689 340.171 13.1984 340.561 12.9209C341.5 12.3056 342.608 11.9991 343.729 12.0442C345.202 12.143 346.639 12.5382 347.954 13.2061L348.377 13.3962L348.514 13.4596L353.098 15.4982V5.77L349.549 2.60121C348.295 2.05326 346.984 1.64245 345.641 1.37595C344.252 1.08065 342.837 0.924953 341.416 0.911193C339.613 0.829618 337.812 1.11212 336.121 1.74185C334.43 2.37158 332.882 3.33562 331.572 4.57643C331.281 4.85652 331.006 5.15274 330.748 5.46369C328.782 7.8329 327.746 10.8365 327.833 13.9138C327.816 15.2639 327.936 16.6123 328.192 17.9382C328.401 19.0266 328.79 20.0726 329.343 21.033C329.761 21.782 330.249 22.4894 330.801 23.1455C331.381 23.8061 331.995 24.4372 332.639 25.0362C333.343 25.6911 334.709 26.8108 336.737 28.3952L337.55 29.0289C339.016 30.1155 340.393 31.3163 341.67 32.6202C342.41 33.3547 342.841 34.3451 342.874 35.3876C342.878 35.8448 342.773 36.2964 342.57 36.7057C342.366 37.115 342.068 37.4704 341.701 37.7431C340.691 38.4416 339.473 38.7768 338.247 38.6937C335.184 38.6937 331.829 37.4438 328.181 34.944V44.4504L329.628 46.8481L331.139 49.3303C333.932 50.2451 336.85 50.7225 339.79 50.7457C341.851 50.7413 343.891 50.3247 345.789 49.5204C347.578 48.7963 349.202 47.7185 350.563 46.3516C351.885 45.0139 352.939 43.4366 353.669 41.7041C354.418 39.9405 354.803 38.0433 354.799 36.127C354.799 35.4193 354.767 34.7327 354.704 34.0673ZM350.088 38.9578C349.49 40.3268 348.629 41.5649 347.553 42.6019C346.384 43.7184 345.003 44.5898 343.492 45.1648C341.981 45.7398 340.37 46.0069 338.754 45.9502C335.47 45.9465 332.225 45.2255 329.248 43.8377V37.141C331.906 38.8394 334.988 39.7546 338.142 39.7817C339.825 39.893 341.493 39.4067 342.853 38.4085C343.502 37.8863 343.989 37.1902 344.258 36.4016C344.422 35.8969 344.504 35.3691 344.5 34.8384C344.5 31.9653 342.423 28.9796 338.269 25.8813C335.638 24.0702 333.286 21.8854 331.287 19.3958C329.904 17.5411 329.163 15.2869 329.174 12.9737C329.125 11.4791 329.412 9.99255 330.013 8.62341C330.615 7.25427 331.515 6.03739 332.649 5.06231C333.099 4.6767 333.575 4.32372 334.075 4.00604C336.29 2.6182 338.867 1.91629 341.48 1.98858C343.999 2.03292 346.487 2.55628 348.81 3.53073V10.0796L348.567 9.97393C346.334 8.89178 343.897 8.29765 341.416 8.23109C340.111 8.1855 338.819 8.50758 337.688 9.16061C337.447 9.30075 337.221 9.46345 337.012 9.64649C336.506 10.0303 336.094 10.5229 335.805 11.088C335.516 11.653 335.358 12.2759 335.343 12.9103C335.4 14.3007 335.995 15.6145 337.001 16.5756C338.888 18.4407 340.923 20.1504 343.085 21.6879C345.452 23.3718 347.508 25.4557 349.159 27.8459C350.378 29.7793 351.013 32.0243 350.986 34.3102C351.009 35.9046 350.703 37.4866 350.088 38.9578Z" fill="#A0FFD2"/>
<path fill-rule="evenodd" clip-rule="evenodd" d="M293.082 41.8108C290.79 39.2546 287.864 37.7864 285.107 35.8112C283.28 34.5014 279.541 31.7657 280.058 29.1251C280.365 27.5829 282.118 26.664 283.417 26.0725C286.352 24.8327 289.464 24.0662 292.639 23.8015C295.807 23.4741 299.589 23.3156 301.944 25.745C302.794 26.644 303.48 27.6842 303.972 28.8187C305.052 31.5978 305.61 34.5517 305.62 37.5329C305.736 40.5221 305.757 45.2225 303.233 47.3667C300.708 49.5109 297.497 46.6696 295.755 44.8211C294.814 43.8282 293.948 42.7931 293.082 41.8108Z" fill="#4EBD88"/>
<path fill-rule="evenodd" clip-rule="evenodd" d="M302.662 27.9837C301.859 26.4521 300.919 24.5931 299.197 23.9487C298.928 23.7636 298.633 23.6211 298.321 23.5262C297.009 23.1043 295.642 22.8801 294.264 22.8608C292.025 22.8025 289.786 22.9938 287.589 23.4312C286.141 23.7032 284.709 24.0559 283.3 24.4874C281.762 24.886 280.284 25.49 278.906 26.2831C277.037 27.5083 276.731 30.0751 277.491 32.0292C278.482 34.0792 280.04 35.8022 281.98 36.9936C283.955 38.4195 286.089 39.6448 288.117 40.9968C290.145 42.3488 291.518 44.7677 293.124 46.7429C294.205 48.1643 295.498 49.4111 296.958 50.4398C297.658 50.8994 298.467 51.1667 299.303 51.2149C300.139 51.2631 300.973 51.0905 301.722 50.7144C304.394 49.2885 304.89 45.5071 305.133 42.8136C305.739 37.7358 304.881 32.5907 302.662 27.9837ZM303.38 38.1766C303.385 38.2328 303.385 38.2894 303.38 38.3456C303.396 38.5848 303.396 38.8247 303.38 39.0639C303.382 40.8032 303.126 42.5332 302.619 44.1973C302.144 45.6021 301.415 47.0281 299.842 47.3661C296.842 48.0104 293.948 45.0951 292.194 43.0671C291.286 42.0108 290.536 40.8595 289.532 39.8983C288.555 38.9906 287.494 38.1772 286.364 37.4689L286.026 37.2577C284.821 36.5077 283.586 35.8 282.413 34.9972C281.26 34.2611 280.196 33.3926 279.244 32.4094C278.877 31.999 278.561 31.5449 278.304 31.0574C278.021 30.5415 277.892 29.9546 277.935 29.3674C278.104 27.6668 279.931 26.695 281.315 26.0718C284.048 24.9595 286.919 24.2205 289.849 23.8748L290.81 23.7586C294.233 23.3572 297.655 23.5157 299.651 24.8149C300.07 25.093 300.43 25.4521 300.708 25.8711C301.753 27.5111 302.45 29.3482 302.757 31.2686C303.229 33.4758 303.445 35.7299 303.401 37.9865L303.38 38.1766Z" fill="#A0FFD2"/>
<path fill-rule="evenodd" clip-rule="evenodd" d="M311.239 13.418C310.975 13.7877 310.668 14.1679 310.341 14.5482C308.228 16.9036 304.954 18.9 302.218 18.3296C302.036 18.2901 301.856 18.2408 301.68 18.1817C301.089 17.9929 300.555 17.659 300.127 17.2106C299.699 16.7622 299.39 16.2136 299.229 15.615C297.866 10.7245 304.732 1.63006 310.689 3.7954C311.511 4.06999 312.207 4.62791 312.654 5.36924C313.953 7.57683 312.823 11.2104 311.239 13.418Z" fill="#4EBD88"/>
<path fill-rule="evenodd" clip-rule="evenodd" d="M320.809 23.1669C320.545 23.4943 320.281 23.8112 320.006 24.0964L319.71 24.4239C315.992 28.237 311.873 28.4905 309.813 26.6209C309.621 26.4214 309.451 26.2018 309.306 25.966C308.25 24.2549 308.377 21.5403 310.553 18.2553C310.895 17.7368 311.272 17.2427 311.683 16.7765C314.387 13.8612 317.936 12.5515 320.756 13.6077C321.216 13.7805 321.639 14.0385 322.003 14.3682C322.198 14.5377 322.366 14.7374 322.499 14.9597C323.935 17.2096 322.52 21.0016 320.809 23.1669Z" fill="#4EBD88"/>
<path fill-rule="evenodd" clip-rule="evenodd" d="M319.689 37.2899L319.594 37.3744C318.407 38.3631 317.015 39.0752 315.518 39.4588C314.022 39.8425 312.459 39.8882 310.943 39.5925C310.213 39.4183 309.529 39.0906 308.936 38.6313C308.436 38.2733 308.027 37.803 307.742 37.2582C305.63 33.1493 315.274 28.0264 320.069 31.66C320.681 32.0563 321.151 32.6371 321.41 33.3183C321.822 34.6598 321.062 36.0963 319.689 37.2899Z" fill="#4EBD88"/>
<path fill-rule="evenodd" clip-rule="evenodd" d="M319.457 30.667C319.086 30.329 318.661 30.0542 318.2 29.8536C317.46 29.4973 316.663 29.2755 315.845 29.1988C317.785 28.2438 319.475 26.8474 320.778 25.1216C322.795 22.576 324.168 19.1643 322.89 15.9638C322.352 14.6692 321.366 13.6118 320.112 12.9851L319.69 12.8056C316.943 11.7493 314.144 12.8056 311.863 14.4745C311.882 14.4438 311.9 14.4121 311.916 14.3794C312.053 14.1681 312.19 13.9463 312.317 13.7034C312.566 13.2405 312.781 12.7605 312.961 12.2669C313.695 10.3091 313.658 8.14545 312.856 6.21448C312.456 5.37145 311.901 4.61166 311.219 3.97521L311.155 3.91183C310.801 3.6252 310.415 3.38062 310.004 3.18301C309.666 3.02694 309.312 2.90999 308.948 2.83444C308.072 2.66 307.171 2.66 306.296 2.83444C304.995 3.1176 303.766 3.66398 302.684 4.43996C301.535 5.23498 300.504 6.18795 299.621 7.27075C298.283 8.90874 297.417 10.8809 297.117 12.9746C296.973 13.874 297.009 14.7932 297.223 15.6786C297.552 17.3414 298.495 18.8195 299.864 19.8191C300.514 20.1795 301.235 20.3923 301.976 20.4423C304.119 20.4465 306.203 19.7408 307.902 18.4354C308.007 18.3509 308.113 18.2876 308.208 18.2031C308.071 18.4143 307.934 18.6361 307.817 18.8474C305.979 22.0162 306.032 26.632 309.191 29.0086C309.659 29.3502 310.175 29.6207 310.722 29.8114C310.881 29.8642 311.039 29.8959 311.208 29.9381L311.535 29.991C310.796 30.2679 310.088 30.6219 309.423 31.0472C308.521 31.5866 307.714 32.2719 307.036 33.0753C306.773 33.3873 306.539 33.7232 306.339 34.0787C305.998 34.8282 305.854 35.6523 305.92 36.4729C305.987 37.2936 306.262 38.0838 306.719 38.7685C307.21 39.652 307.901 40.408 308.736 40.9761C309.642 41.5104 310.655 41.836 311.702 41.9292C312.749 42.0224 313.803 41.8808 314.789 41.5148C315.396 41.3301 315.99 41.1006 316.563 40.8282L316.859 40.6698C317.077 40.5658 317.288 40.4494 317.493 40.3212C319.103 39.5201 320.411 38.2195 321.221 36.6137C321.481 35.8086 321.544 34.9527 321.405 34.1181C321.265 33.2836 320.927 32.4949 320.419 31.8183C320.149 31.3946 319.826 31.0076 319.457 30.667ZM300.878 18.3298C300.696 18.2904 300.516 18.241 300.339 18.1819C299.745 17.9961 299.207 17.6636 298.775 17.215C298.343 16.7664 298.031 16.2162 297.867 15.6152C296.526 10.7247 303.392 1.6303 309.349 3.79564C310.17 4.07022 310.866 4.62814 311.314 5.36947C312.613 7.57706 311.483 11.2106 309.898 13.4182C309.634 13.7879 309.328 14.1681 309 14.5484C306.888 16.9039 303.613 18.8896 300.878 18.3298ZM308.356 26.6215C308.164 26.422 307.994 26.2024 307.849 25.9666C306.793 24.2555 306.92 21.5409 309.095 18.2559C309.438 17.7374 309.815 17.2433 310.226 16.7771C312.93 13.8618 316.479 12.5521 319.299 13.6083C319.759 13.7811 320.181 14.0391 320.545 14.3688C320.741 14.5383 320.909 14.738 321.042 14.9603C322.468 17.1679 321.042 20.9494 319.341 23.1253C319.077 23.4527 318.813 23.7696 318.538 24.0548L318.243 24.3822C314.535 28.2376 310.416 28.4911 308.356 26.6215ZM318.729 36.4447C318.695 36.475 318.666 36.5107 318.644 36.5504C317.579 37.669 316.279 38.538 314.838 39.095C313.397 39.652 311.851 39.8832 310.31 39.772C309.564 39.6787 308.846 39.4343 308.198 39.0537C307.66 38.753 307.198 38.334 306.846 37.8284C304.311 33.9836 313.183 27.7728 318.465 30.8148C319.106 31.1427 319.625 31.6687 319.943 32.3147C320.535 33.5823 319.954 35.1033 318.729 36.4447Z" fill="#A0FFD2"/>
<path fill-rule="evenodd" clip-rule="evenodd" d="M297.17 10.9993C297.097 13.4074 296.261 15.7301 294.783 17.6326C294.01 18.7029 292.851 19.4303 291.551 19.6607C291.023 19.7343 290.486 19.7021 289.971 19.5661C289.456 19.4301 288.974 19.193 288.551 18.8685C288.002 18.4101 287.571 17.8269 287.294 17.1679C286.581 15.0775 286.668 12.7972 287.537 10.7669C287.868 9.78261 288.357 8.85865 288.984 8.0312C289.743 7.02894 290.838 6.33489 292.068 6.07711C292.658 5.95095 293.268 5.94581 293.859 6.06201C294.451 6.1782 295.014 6.41332 295.512 6.75312C295.608 6.82121 295.7 6.89529 295.786 6.97494C296.289 7.50934 296.673 8.14451 296.911 8.83833C297.15 9.53214 297.238 10.2688 297.17 10.9993Z" fill="#4EBD88"/>
<path fill-rule="evenodd" clip-rule="evenodd" d="M296.388 10.9886C296.326 9.93276 296.038 8.90261 295.543 7.96767C295.052 7.11141 294.33 6.41011 293.46 5.94335C292.59 5.47659 291.606 5.26306 290.621 5.32701C290.407 5.34156 290.194 5.37693 289.987 5.43263C287.875 6.01358 286.364 8.13667 285.667 10.1647C284.611 13.1645 284.537 16.9776 286.153 19.7872C286.608 20.6845 287.386 21.3767 288.33 21.7253C289.274 22.074 290.315 22.0533 291.244 21.6674C294.318 20.421 295.923 16.967 296.325 13.851C296.325 13.5764 296.388 13.3124 296.409 13.0377C296.455 12.3551 296.448 11.6701 296.388 10.9886ZM292.406 18.0761C291.783 18.8205 290.946 19.3552 290.008 19.6077H289.945C289.351 19.7108 288.741 19.6336 288.191 19.3859C284.241 17.5902 285.308 10.3337 288.551 7.20716C289.21 6.53849 290.079 6.11702 291.012 6.01358C291.3 5.98166 291.59 5.98166 291.878 6.01358H291.952C292.181 6.05366 292.407 6.11014 292.628 6.18258C296.694 7.74585 295.364 14.8439 292.406 18.0761Z" fill="#A0FFD2"/>
</svg>
