<svg width="356" height="52" viewBox="0 0 356 52" fill="none" xmlns="http://www.w3.org/2000/svg">
<path d="M32.922 22.6172H11.1121V4.21313H2.9043V46.7858H11.1121V28.2548H32.922V46.7858H41.1298V4.21313H32.922V22.6172Z" fill="#4EBD88"/>
<path d="M77.4305 28.1277C77.5517 30.5243 77.2838 32.9247 76.6372 35.2355C76.0936 36.6206 75.2053 37.8439 74.0564 38.7894C71.5392 40.7546 68.4046 41.7594 65.214 41.6241C62.9297 41.6779 60.6648 41.1923 58.6033 40.2067C56.8544 39.3935 55.3831 38.0841 54.3725 36.4413C53.4629 34.8759 53.0081 32.0906 53.0081 28.0854V3.96973H46.9368V28.0748C46.8463 30.6071 47.0737 33.1407 47.6138 35.6163C47.9991 37.0497 48.5867 38.4209 49.359 39.6885C50.0675 40.8076 50.9331 41.8193 51.9292 42.6923C55.3068 45.5764 59.7562 47.0219 65.2775 47.0289C70.7987 47.036 75.2058 45.5834 78.4988 42.6712C79.4995 41.8117 80.3689 40.8104 81.0796 39.699C81.8595 38.4027 82.4541 37.0035 82.846 35.5423C83.4 33.1151 83.6382 30.6265 83.5546 28.1383V3.96973H77.4305V28.1277Z" fill="#4EBD88"/>
<path d="M105.47 4.09692L87.1826 46.9023H93.4442L98.7328 34.2839H116.894L122.573 46.9023H128.814L109.775 4.09692H105.47ZM101.24 28.8684L107.586 13.447L114.45 28.8684H101.24Z" fill="#4EBD88"/>
<path d="M140.628 37.1818C139.064 35.7086 137.831 33.9198 137.01 31.9341C136.19 29.9484 135.8 27.8109 135.868 25.6634C135.815 23.5048 136.218 21.3594 137.051 19.3673C137.884 17.3752 139.128 15.5812 140.702 14.1027C142.321 12.5703 144.228 11.3732 146.312 10.5799C148.396 9.78671 150.616 9.41308 152.844 9.48052C157.997 9.58541 163.031 11.0446 167.441 13.7113V7.19588C162.757 5.04331 157.689 3.85279 152.538 3.69487C149.529 3.61825 146.536 4.13978 143.73 5.22918C140.925 6.31859 138.364 7.95419 136.196 10.0411C134.052 12.0327 132.353 14.4549 131.21 17.1489C130.067 19.843 129.506 22.7481 129.564 25.674C129.541 29.4956 130.542 33.2538 132.462 36.5578C134.327 39.8449 137.041 42.5701 140.321 44.4483C144.031 46.4545 148.206 47.4434 152.421 47.3147C157.806 47.4233 163.13 46.1641 167.895 43.655V36.9386C163.432 39.97 158.176 41.6216 152.781 41.6877C150.558 41.772 148.341 41.4175 146.256 40.6444C144.171 39.8712 142.258 38.6946 140.628 37.1818Z" fill="#4EBD88"/>
<path d="M207.475 22.0884H183.561V3.68433H177.468V47.3041H183.561V28.7837H207.475V47.3041H213.568V3.68433H207.475V22.0884Z" fill="#4EBD88"/>
<path d="M231.612 3.46216H225.297V47.5368H231.612V3.46216Z" fill="#4EBD88"/>
<path d="M242.094 9.04684H257.209V47.5685H263.555V9.04684H278.924V3.43042H242.094V9.04684Z" fill="#4EBD88"/>
<path d="M351.038 35.8913C351.038 35.6798 351.038 35.4682 351.038 35.2567C351.038 30.4547 348.44 26.5059 343.243 23.4104L338.589 20.6604C336.892 19.7446 335.356 18.5586 334.041 17.1488C333.285 16.3037 332.806 15.2484 332.666 14.1237C332.742 13.5148 332.95 12.9298 333.275 12.4092C333.6 11.8887 334.035 11.4451 334.548 11.1093C335.98 10.1451 337.678 9.65653 339.403 9.7131C342.929 9.7131 346.229 11.1868 349.303 14.1343V6.15921C346.421 4.19261 343.009 3.14869 339.519 3.1659C336.204 3.03206 332.963 4.16678 330.455 6.33902C329.31 7.36117 328.404 8.62239 327.801 10.0334C327.198 11.4445 326.912 12.9708 326.965 14.5045C326.965 14.6314 326.965 14.7584 326.965 14.8853C326.965 15.0122 326.965 15.3401 326.965 15.5622C326.933 17.6836 327.582 19.7594 328.816 21.4854C330.517 23.6216 332.623 25.4008 335.014 26.721L339.646 29.5345C343.123 31.7063 344.981 33.9875 345.221 36.3779C345.165 37.0529 344.971 37.7092 344.65 38.306C344.33 38.9028 343.891 39.4274 343.359 39.8471C342.013 40.9355 340.319 41.5025 338.589 41.4443C334.259 41.4443 330.451 39.3571 327.165 35.1827V43.9828C330.455 46.5194 334.498 47.8855 338.652 47.8646C341.921 48.0111 345.118 46.8721 347.558 44.6914C348.71 43.6302 349.617 42.3315 350.218 40.8852C350.819 39.4389 351.099 37.8794 351.038 36.3144C351.038 36.1875 351.038 36.0606 351.038 35.9336V35.8913Z" fill="#4EBD88"/>
<path d="M36.5606 1.36792H28.6912V19.6133H12.6247V4.51988L11.3977 3.46218L9.21885 1.70639L8.80634 1.36792H0.937012V46.0772L4.11013 49.9484H12.6564V30.9097H28.6912V46.0772L31.8643 49.9484H40.4318V4.51988L36.9731 1.70639L36.5606 1.36792ZM36.2221 45.7916H29.7912V27.1548H8.43615V45.7598H1.99472V2.46793H8.43615V20.7134H29.7912V2.46793H36.2221V45.7916Z" fill="#A0FFD2"/>
<path d="M81.2063 1.70639L80.7938 1.36792H73.0409V27.8106C73.0801 29.5004 72.9059 31.1884 72.5226 32.8347C72.2092 34.0081 71.6301 35.0938 70.8303 36.0078C70.052 36.9078 69.084 37.624 67.9958 38.105C66.9076 38.586 65.7263 38.8198 64.5369 38.7896C62.9272 38.7862 61.3484 38.3476 59.9676 37.5203C58.4839 36.6425 57.3398 35.2897 56.7205 33.6808C56.0839 31.7235 55.8184 29.6644 55.9377 27.6096V4.64681L52.7646 1.76985L52.6589 1.70639L52.2781 1.36792H44.303V29.4394C44.1736 32.6913 44.6102 35.941 45.5934 39.0434C46.8843 42.444 49.2164 45.3499 52.2569 47.3464C55.7543 49.6026 59.8593 50.7322 64.0186 50.583C67.3351 50.6063 70.6214 49.9512 73.6755 48.658C76.6839 47.3657 79.2968 45.3002 81.2487 42.6713C82.4795 41.0538 83.3978 39.2208 83.9564 37.2665C84.5962 34.7301 84.8845 32.1178 84.8131 29.5029V4.64681L84.2948 4.22373L81.2063 1.70639ZM80.6035 28.8365C80.6035 33.0674 79.99 36.3568 78.7736 38.6732C77.4284 41.0884 75.3863 43.042 72.9139 44.2791C70.9167 45.3051 68.7474 45.9541 66.5148 46.1935C65.5008 46.3191 64.4798 46.3792 63.458 46.3733C57.7041 46.3733 53.1701 44.5682 49.8559 40.9579C48.2207 39.2616 47.0165 37.1977 46.3444 34.9395C45.6243 31.9951 45.2936 28.9689 45.3607 25.9384V2.46793H51.7069V27.2923C51.7069 34.7103 54.5768 38.9412 60.3167 39.9848C61.3118 40.1595 62.3207 40.2445 63.3311 40.2386C67.9075 40.2386 71.1123 38.4758 72.9457 34.9501C73.7213 33.4834 74.1091 31.1635 74.1091 27.9904V2.46793H80.5717L80.6035 28.8365Z" fill="#A0FFD2"/>
<path d="M110.727 1.05054H102.752L85.5532 46.3309L89.1388 49.9483H96.7649L100.266 40.5241H115.92L118.257 46.9867L121.621 49.9483H131.796L115.169 3.29287L110.727 1.05054ZM118.945 45.7598L115.772 36.526H97.3361L93.8351 45.7598H86.9388L87.2773 44.8819L103.534 2.1294H110.43L110.568 2.51017L125.746 45.7598H118.945Z" fill="#A0FFD2"/>
<path d="M106.877 11.543L100.531 28.022L100.467 28.1701L99.5576 30.5394H113.583L112.758 28.2124L107.469 13.2882L106.877 11.543ZM111.52 28.2124L111.954 29.4817H104.36L104.825 28.2124L108.294 18.8306L111.52 28.2124Z" fill="#A0FFD2"/>
<path d="M156.346 39.1068C154.541 39.1936 152.738 38.9068 151.049 38.2644C149.36 37.6219 147.822 36.6376 146.531 35.3731C145.296 34.0794 144.334 32.55 143.703 30.8762C143.073 29.2024 142.786 27.4187 142.86 25.6316C142.86 21.288 144.235 17.8646 146.985 15.3613C148.122 14.3229 149.442 13.5052 150.878 12.9498C152.595 12.3614 154.405 12.0891 156.219 12.1459C162.025 12.2701 167.722 13.7478 172.857 16.4613V5.81024L169.515 2.8275C165.177 1.43045 160.649 0.716778 156.092 0.712092C149.946 0.527241 143.961 2.69495 139.359 6.77275C138.989 7.11121 138.619 7.46026 138.302 7.83045C133.739 12.4562 131.462 18.3899 131.469 25.6316C131.424 29.2184 132.082 32.7792 133.405 36.1135C134.574 39.0993 136.379 41.7952 138.693 44.0146C139.52 44.7856 140.404 45.4928 141.337 46.13C142.92 47.2226 144.628 48.121 146.425 48.806C149.463 49.9678 152.692 50.5525 155.944 50.5301C161.907 50.4366 167.803 49.2574 173.344 47.0502V39.5511L169.441 36.3779C165.253 37.9913 160.83 38.913 156.346 39.1068ZM169.166 44.1521L168.245 44.4271C164.435 45.6385 160.471 46.2974 156.473 46.3838C154.065 46.402 151.664 46.125 149.323 45.5588C147.33 45.0825 145.412 44.3352 143.622 43.3377C142.047 42.4269 140.591 41.3257 139.285 40.0588C138.071 38.8853 137.006 37.5675 136.112 36.1347C134.541 33.5518 133.448 30.7069 132.886 27.7365C132.661 26.5117 132.544 25.2693 132.537 24.0239C132.54 21.843 132.871 19.675 133.521 17.5931C134.182 15.4422 135.181 13.4106 136.482 11.5747C137.803 9.68328 139.388 7.99129 141.189 6.55063C142.244 5.72822 143.382 5.01917 144.584 4.43522C145.59 3.93067 146.629 3.49598 147.694 3.13424C150.285 2.24375 153.004 1.78286 155.743 1.7698C160.122 1.75553 164.478 2.39363 168.668 3.66309V10.2314C168.362 10.1363 168.066 10.0411 167.769 9.96702C164.054 8.76491 160.186 8.10238 156.283 7.99969C154.45 7.98316 152.624 8.19997 150.846 8.64489C149.602 8.94812 148.398 9.39908 147.26 9.98818C147.038 10.1045 146.827 10.2314 146.615 10.3584C145.476 11.0574 144.431 11.8998 143.506 12.8651C142.656 13.7386 141.921 14.7159 141.316 15.7738C140.775 16.7586 140.328 17.7928 139.983 18.8623C139.667 19.8049 139.423 20.7702 139.254 21.7499C139.123 22.5364 139.055 23.3323 139.053 24.1297C139.056 24.9201 139.123 25.7089 139.254 26.4884C139.423 27.4588 139.67 28.4139 139.994 29.3442C140.357 30.4066 140.81 31.4363 141.348 32.4221C141.949 33.492 142.685 34.4802 143.537 35.3625C144.456 36.3191 145.49 37.1576 146.615 37.8587C147.909 38.6436 149.314 39.2284 150.783 39.5934C152.537 40.051 154.343 40.275 156.156 40.2597C159.925 40.1595 163.657 39.4964 167.23 38.2924C167.568 38.1972 167.907 38.0914 168.288 37.9645C168.668 37.8376 168.901 37.7741 169.208 37.6683L169.166 44.1521Z" fill="#A0FFD2"/>
<path d="M204.239 1.36783V19.6133H188.151V4.5198L184.333 1.34668H176.516V46.0771L177.944 47.8329L179.658 49.9483H188.151V30.9096H204.217V46.0771L204.514 46.4367L205.645 47.8329L207.369 49.9483H215.937V4.5198L212.087 1.34668L204.239 1.36783ZM211.769 45.7915H205.339V27.1547H183.973V45.7598H177.627V2.46785H183.973V20.7133H205.339V2.46785H211.769V45.7915Z" fill="#A0FFD2"/>
<path d="M221.998 1.32568V46.1936L225.033 49.9484H233.632V4.46706L229.877 1.29395L221.998 1.32568ZM229.402 45.7493H223.055V2.38338H229.402V45.7493Z" fill="#A0FFD2"/>
<path d="M238.519 1.32544V9.26881L241.988 12.9285H254.014V46.1933L257.262 49.9482H265.85V12.9285H281.716V4.65721L277.802 1.32544H238.519ZM277.496 8.72938H261.63V45.7491H255.104V8.72938H239.63V2.38315H277.496V8.72938Z" fill="#A0FFD2"/>
<path d="M355.818 33.8924C355.746 33.23 355.59 32.5795 355.353 31.9568L354.697 30.3279C354.429 29.7346 354.072 29.1853 353.639 28.6991C353.111 28.0433 352.688 27.5462 352.391 27.1971C351.863 26.6116 351.298 26.0605 350.699 25.5471L348.785 23.8442C348.362 23.4634 347.579 22.7865 346.447 21.824C345.939 21.4115 345.389 20.9143 344.712 20.3643C344.036 19.8143 343.581 19.3912 343.263 19.1374L342.206 18.2066C341.908 17.9509 341.633 17.6715 341.381 17.371C341.226 17.1736 341.056 16.9409 340.873 16.6729C340.712 16.45 340.593 16.1989 340.524 15.9325C340.471 15.6858 340.446 15.4339 340.45 15.1816C340.43 14.7029 340.53 14.2267 340.74 13.7963C340.951 13.366 341.265 12.995 341.656 12.7171C342.596 12.101 343.705 11.794 344.829 11.8392C346.303 11.9381 347.742 12.3339 349.06 13.0027L349.483 13.1931L349.62 13.2565L354.211 15.2979V5.55644L350.657 2.38333C349.4 1.83462 348.088 1.42326 346.743 1.15639C345.352 0.860681 343.935 0.704776 342.512 0.690997C340.707 0.60931 338.904 0.892203 337.21 1.52279C335.516 2.15338 333.967 3.11873 332.655 4.36124C332.363 4.64171 332.088 4.93834 331.83 5.24971C329.861 7.62216 328.824 10.6299 328.91 13.7114C328.894 15.0633 329.014 16.4135 329.27 17.7412C329.479 18.8312 329.869 19.8786 330.423 20.8403C330.841 21.5903 331.33 22.2987 331.882 22.9557C332.464 23.6172 333.078 24.2491 333.723 24.849C334.428 25.5048 335.796 26.626 337.827 28.2125L338.641 28.8471C340.109 29.9352 341.488 31.1377 342.766 32.4433C343.508 33.1788 343.939 34.1706 343.972 35.2145C343.976 35.6723 343.871 36.1246 343.667 36.5344C343.463 36.9443 343.166 37.3002 342.798 37.5732C341.786 38.2727 340.567 38.6083 339.339 38.5251C336.272 38.5251 332.912 37.2735 329.259 34.7703V44.2896L330.708 46.6906L332.221 49.1762C335.018 50.0923 337.94 50.5704 340.884 50.5936C342.948 50.5891 344.991 50.172 346.891 49.3666C348.682 48.6415 350.308 47.5622 351.672 46.1935C352.995 44.854 354.051 43.2745 354.782 41.5396C355.532 39.7736 355.917 37.8738 355.914 35.9549C355.914 35.2463 355.882 34.5587 355.818 33.8924ZM351.196 38.7896C350.597 40.1604 349.735 41.4003 348.658 42.4387C347.487 43.5567 346.104 44.4293 344.591 45.0051C343.078 45.5809 341.465 45.8483 339.847 45.7916C336.558 45.7878 333.309 45.0659 330.328 43.6762V36.9703C332.989 38.671 336.075 39.5874 339.234 39.6146C340.919 39.7261 342.589 39.2391 343.951 38.2396C344.601 37.7166 345.089 37.0196 345.358 36.2299C345.522 35.7245 345.604 35.196 345.601 34.6645C345.601 31.7876 343.521 28.7978 339.36 25.6952C336.727 23.8816 334.372 21.6938 332.369 19.2009C330.985 17.3436 330.242 15.0864 330.254 12.77C330.205 11.2734 330.492 9.78476 331.094 8.41375C331.696 7.04274 332.598 5.82419 333.733 4.84778C334.184 4.46165 334.661 4.10818 335.161 3.79008C337.38 2.40034 339.959 1.69747 342.576 1.76986C345.099 1.81426 347.59 2.33833 349.916 3.31411V9.87189L349.673 9.76612C347.437 8.68248 344.996 8.08754 342.512 8.0209C341.205 7.97525 339.912 8.29776 338.779 8.95168C338.538 9.09202 338.311 9.25494 338.102 9.43823C337.596 9.82252 337.183 10.3159 336.893 10.8817C336.604 11.4475 336.446 12.0712 336.431 12.7065C336.488 14.0988 337.084 15.4144 338.091 16.3768C339.981 18.2445 342.018 19.9565 344.184 21.4961C346.554 23.1823 348.612 25.269 350.265 27.6625C351.487 29.5986 352.122 31.8466 352.095 34.1357C352.118 35.7322 351.812 37.3164 351.196 38.7896Z" fill="#A0FFD2"/>
<path fill-rule="evenodd" clip-rule="evenodd" d="M294.112 41.6454C291.817 39.0858 288.887 37.6156 286.127 35.6377C284.297 34.3261 280.552 31.5867 281.071 28.9424C281.377 27.3981 283.133 26.4779 284.434 25.8856C287.373 24.6442 290.489 23.8766 293.668 23.6116C296.841 23.2837 300.628 23.125 302.986 25.5577C303.837 26.458 304.524 27.4995 305.017 28.6357C306.098 31.4185 306.657 34.3764 306.667 37.3617C306.784 40.355 306.805 45.0618 304.277 47.209C301.749 49.3561 298.533 46.5109 296.788 44.6599C295.847 43.6657 294.98 42.6291 294.112 41.6454Z" fill="#4EBD88"/>
<path fill-rule="evenodd" clip-rule="evenodd" d="M303.705 27.8C302.902 26.2663 301.96 24.4048 300.236 23.7596C299.967 23.5742 299.671 23.4315 299.358 23.3365C298.045 22.914 296.676 22.6894 295.297 22.6701C293.054 22.6118 290.812 22.8034 288.612 23.2413C287.162 23.5137 285.728 23.8668 284.318 24.299C282.777 24.6981 281.297 25.3029 279.918 26.0971C278.046 27.324 277.739 29.8943 278.5 31.851C279.492 33.9039 281.053 35.6292 282.996 36.8222C284.974 38.2501 287.11 39.4771 289.141 40.8309C291.172 42.1848 292.547 44.6069 294.154 46.5849C295.237 48.0082 296.532 49.2567 297.994 50.2868C298.695 50.7471 299.505 51.0147 300.342 51.063C301.179 51.1113 302.015 50.9384 302.764 50.5618C305.44 49.1339 305.937 45.3473 306.18 42.6502C306.786 37.5654 305.928 32.4134 303.705 27.8ZM304.425 38.0069C304.43 38.0632 304.43 38.1198 304.425 38.1761C304.441 38.4156 304.441 38.6559 304.425 38.8953C304.427 40.6371 304.17 42.3695 303.663 44.0358C303.187 45.4425 302.457 46.8704 300.881 47.2089C297.877 47.8541 294.979 44.9348 293.224 42.904C292.314 41.8463 291.563 40.6934 290.558 39.7309C289.579 38.8219 288.517 38.0074 287.385 37.2982L287.047 37.0867C285.841 36.3357 284.603 35.627 283.429 34.8232C282.274 34.086 281.209 33.2163 280.256 32.2318C279.888 31.8208 279.572 31.3661 279.315 30.8779C279.031 30.3613 278.902 29.7736 278.945 29.1856C279.114 27.4827 280.944 26.5096 282.329 25.8856C285.066 24.7717 287.941 24.0317 290.875 23.6855L291.838 23.5692C295.265 23.1672 298.692 23.3259 300.691 24.6269C301.111 24.9054 301.47 25.265 301.749 25.6846C302.795 27.3268 303.494 29.1664 303.801 31.0895C304.273 33.2996 304.49 35.5568 304.446 37.8165L304.425 38.0069Z" fill="#A0FFD2"/>
<path fill-rule="evenodd" clip-rule="evenodd" d="M312.294 13.2143C312.03 13.5845 311.723 13.9652 311.395 14.346C309.279 16.7047 306.001 18.7038 303.261 18.1326C303.079 18.0931 302.899 18.0437 302.722 17.9845C302.13 17.7954 301.596 17.4611 301.167 17.0121C300.739 16.5631 300.429 16.0137 300.268 15.4143C298.903 10.5171 305.778 1.41027 311.744 3.57857C312.566 3.85352 313.264 4.41221 313.711 5.15455C315.012 7.36515 313.88 11.0037 312.294 13.2143Z" fill="#4EBD88"/>
<path fill-rule="evenodd" clip-rule="evenodd" d="M321.877 22.9766C321.612 23.3045 321.348 23.6218 321.073 23.9074L320.777 24.2353C317.054 28.0536 312.929 28.3074 310.866 26.4353C310.674 26.2355 310.504 26.0157 310.358 25.7795C309.301 24.066 309.428 21.3477 311.607 18.0583C311.949 17.5391 312.327 17.0443 312.738 16.5775C315.446 13.6582 319 12.3467 321.824 13.4044C322.284 13.5773 322.708 13.8357 323.072 14.1659C323.268 14.3356 323.436 14.5355 323.569 14.7582C325.008 17.0111 323.59 20.8083 321.877 22.9766Z" fill="#4EBD88"/>
<path fill-rule="evenodd" clip-rule="evenodd" d="M320.756 37.1183L320.661 37.203C319.472 38.1931 318.078 38.9061 316.58 39.2903C315.081 39.6745 313.516 39.7202 311.998 39.4241C311.267 39.2497 310.582 38.9216 309.988 38.4616C309.488 38.1031 309.078 37.6321 308.793 37.0866C306.678 32.9721 316.335 27.8423 321.137 31.4808C321.749 31.8776 322.22 32.4592 322.48 33.1414C322.892 34.4847 322.131 35.9231 320.756 37.1183Z" fill="#4EBD88"/>
<path fill-rule="evenodd" clip-rule="evenodd" d="M320.523 30.4864C320.15 30.148 319.725 29.8728 319.264 29.672C318.523 29.3151 317.724 29.0931 316.905 29.0162C318.848 28.06 320.54 26.6617 321.845 24.9335C323.865 22.3844 325.24 18.968 323.96 15.7632C323.422 14.4668 322.434 13.4079 321.178 12.7804L320.755 12.6006C318.005 11.5429 315.202 12.6006 312.918 14.2718C312.937 14.2411 312.955 14.2093 312.971 14.1766C313.108 13.9651 313.246 13.7429 313.373 13.4997C313.622 13.0362 313.837 12.5555 314.018 12.0612C314.753 10.1007 314.715 7.93414 313.912 6.00053C313.512 5.15635 312.956 4.39552 312.273 3.75819L312.209 3.69473C311.854 3.4077 311.467 3.1628 311.056 2.96491C310.718 2.80863 310.363 2.69153 309.999 2.61587C309.122 2.44119 308.22 2.44119 307.344 2.61587C306.041 2.89941 304.81 3.44654 303.726 4.22358C302.576 5.01969 301.543 5.97396 300.659 7.05824C299.319 8.69846 298.452 10.6733 298.152 12.7698C298.007 13.6705 298.043 14.591 298.258 15.4776C298.588 17.1427 299.531 18.6228 300.902 19.6238C301.553 19.9846 302.275 20.1977 303.018 20.2478C305.163 20.252 307.25 19.5453 308.951 18.2382C309.057 18.1536 309.163 18.0901 309.258 18.0055C309.121 18.217 308.983 18.4392 308.867 18.6507C307.026 21.8238 307.079 26.446 310.242 28.8258C310.711 29.1679 311.227 29.4387 311.775 29.6297C311.934 29.6826 312.093 29.7143 312.262 29.7566L312.59 29.8095C311.85 30.0868 311.141 30.4413 310.474 30.8672C309.571 31.4073 308.763 32.0935 308.084 32.898C307.821 33.2105 307.587 33.5469 307.386 33.9028C307.045 34.6533 306.9 35.4785 306.967 36.3003C307.034 37.1221 307.309 37.9133 307.767 38.599C308.258 39.4837 308.95 40.2408 309.787 40.8096C310.693 41.3447 311.708 41.6707 312.756 41.764C313.805 41.8574 314.861 41.7156 315.848 41.3491C316.456 41.1641 317.05 40.9343 317.625 40.6616L317.921 40.5029C318.139 40.3987 318.351 40.2822 318.555 40.1539C320.168 39.3517 321.478 38.0493 322.289 36.4413C322.55 35.635 322.613 34.778 322.473 33.9423C322.333 33.1066 321.994 32.3168 321.485 31.6393C321.216 31.2151 320.892 30.8275 320.523 30.4864ZM301.918 18.1324C301.735 18.0929 301.555 18.0435 301.378 17.9843C300.783 17.7983 300.244 17.4653 299.812 17.0161C299.379 16.5669 299.067 16.0159 298.903 15.4141C297.56 10.5169 304.435 1.41009 310.4 3.57838C311.223 3.85334 311.92 4.41202 312.368 5.15437C313.669 7.36497 312.537 11.0035 310.95 13.2141C310.686 13.5843 310.379 13.9651 310.051 14.3458C307.936 16.7045 304.657 18.693 301.918 18.1324ZM309.406 26.4354C309.214 26.2356 309.044 26.0158 308.899 25.7796C307.841 24.0662 307.968 21.3478 310.147 18.0584C310.489 17.5392 310.867 17.0445 311.278 16.5776C313.986 13.6583 317.54 12.3468 320.364 13.4045C320.824 13.5774 321.248 13.8358 321.612 14.166C321.808 14.3357 321.976 14.5357 322.109 14.7583C323.537 16.9689 322.109 20.7555 320.406 22.9344C320.142 23.2623 319.878 23.5796 319.602 23.8652L319.306 24.1931C315.594 28.0537 311.469 28.3076 309.406 26.4354ZM319.793 36.2721C319.759 36.3024 319.73 36.3382 319.708 36.3779C318.641 37.4981 317.34 38.3682 315.897 38.926C314.454 39.4838 312.906 39.7152 311.363 39.6039C310.616 39.5105 309.896 39.2658 309.248 38.8846C308.709 38.5835 308.246 38.1639 307.894 37.6577C305.355 33.8076 314.24 27.5883 319.528 30.6345C320.171 30.9628 320.69 31.4895 321.009 32.1364C321.602 33.4057 321.02 34.9288 319.793 36.2721Z" fill="#A0FFD2"/>
<path fill-rule="evenodd" clip-rule="evenodd" d="M298.206 10.792C298.132 13.2034 297.295 15.5293 295.815 17.4344C295.041 18.5062 293.881 19.2345 292.579 19.4652C292.051 19.539 291.513 19.5068 290.997 19.3706C290.481 19.2344 289.998 18.9969 289.575 18.672C289.025 18.2129 288.594 17.629 288.316 16.9691C287.602 14.8758 287.689 12.5924 288.56 10.5594C288.891 9.5737 289.38 8.64848 290.009 7.81989C290.768 6.81627 291.865 6.12126 293.097 5.86314C293.688 5.7368 294.298 5.73165 294.891 5.84801C295.483 5.96437 296.046 6.19981 296.545 6.54007C296.641 6.60825 296.733 6.68244 296.82 6.76219C297.324 7.29732 297.707 7.93336 297.946 8.62812C298.185 9.32289 298.274 10.0605 298.206 10.792Z" fill="#4EBD88"/>
<path fill-rule="evenodd" clip-rule="evenodd" d="M297.423 10.7815C297.36 9.72422 297.072 8.69266 296.577 7.75644C296.084 6.89902 295.362 6.19676 294.49 5.72936C293.619 5.26196 292.634 5.04815 291.648 5.11218C291.433 5.12675 291.221 5.16217 291.013 5.21795C288.898 5.79969 287.385 7.92568 286.687 9.95647C285.629 12.9604 285.555 16.7787 287.174 19.5922C287.63 20.4907 288.408 21.1838 289.354 21.5329C290.299 21.882 291.341 21.8613 292.272 21.4749C295.35 20.2268 296.957 16.7681 297.359 13.6479C297.359 13.3729 297.423 13.1084 297.444 12.8334C297.49 12.1499 297.483 11.4639 297.423 10.7815ZM293.435 17.8787C292.811 18.6241 291.973 19.1595 291.034 19.4124H290.971C290.377 19.5157 289.765 19.4383 289.215 19.1902C285.259 17.3921 286.328 10.1257 289.575 6.9949C290.235 6.32532 291.105 5.90327 292.039 5.79969C292.327 5.76773 292.618 5.76773 292.906 5.79969H292.98C293.21 5.83983 293.436 5.89638 293.657 5.96892C297.73 7.53433 296.397 14.6421 293.435 17.8787Z" fill="#A0FFD2"/>
</svg>
