<svg width="608" height="177" xmlns="http://www.w3.org/2000/svg" xmlns:xlink="http://www.w3.org/1999/xlink" xml:space="preserve" overflow="hidden"><g transform="translate(-176 -259)"><g><g><path d="M83.0933 112.187C84.7474 112.187 86.1635 112.527 87.3416 113.206 88.5425 113.863 89.4715 114.815 90.1285 116.061 90.7856 117.285 91.1141 118.78 91.1141 120.547L91.1141 122.722 78.947 122.722C78.9924 124.399 79.4568 125.702 80.3405 126.631 81.2241 127.537 82.4476 127.99 84.011 127.99 85.2119 127.99 86.2767 127.877 87.2057 127.65 88.1573 127.402 89.1316 127.05 90.1285 126.597L90.1285 130.029C89.2223 130.46 88.2819 130.777 87.3076 130.981 86.3334 131.185 85.1665 131.287 83.807 131.287 82.0172 131.287 80.4198 130.947 79.015 130.267 77.6329 129.565 76.5454 128.511 75.7523 127.107 74.982 125.702 74.5968 123.957 74.5968 121.873 74.5968 119.766 74.948 117.998 75.6503 116.571 76.3755 115.12 77.3724 114.033 78.6411 113.308 79.91 112.561 81.394 112.187 83.0933 112.187ZM83.0933 115.347C81.9605 115.347 81.0316 115.721 80.3065 116.469 79.6041 117.194 79.1849 118.281 79.049 119.732L86.9678 119.732C86.9678 118.871 86.8205 118.111 86.5259 117.455 86.2541 116.798 85.8349 116.288 85.2685 115.925 84.7021 115.54 83.977 115.347 83.0933 115.347ZM106.288 112.187C108.349 112.187 109.959 112.719 111.114 113.784 112.292 114.849 112.881 116.571 112.881 118.95L112.881 130.947 108.599 130.947 108.599 119.8C108.599 118.417 108.327 117.387 107.783 116.707 107.24 116.004 106.378 115.653 105.201 115.653 103.478 115.653 102.3 116.197 101.666 117.285 101.031 118.349 100.714 119.902 100.714 121.941L100.714 130.947 96.4319 130.947 96.4319 112.527 99.7285 112.527 100.34 114.94 100.578 114.94C100.986 114.305 101.484 113.784 102.074 113.376 102.663 112.968 103.319 112.673 104.045 112.493 104.77 112.289 105.517 112.187 106.288 112.187ZM126.68 131.287C124.936 131.287 123.417 130.958 122.126 130.301 120.857 129.622 119.872 128.591 119.169 127.209 118.489 125.804 118.149 124.014 118.149 121.839 118.149 119.573 118.523 117.737 119.271 116.333 120.042 114.906 121.095 113.863 122.432 113.206 123.769 112.527 125.298 112.187 127.02 112.187 128.175 112.187 129.207 112.3 130.112 112.527 131.019 112.753 131.79 113.025 132.424 113.342L131.166 116.707C130.464 116.435 129.762 116.208 129.059 116.027 128.357 115.823 127.677 115.721 127.02 115.721 126 115.721 125.15 115.948 124.471 116.401 123.814 116.854 123.327 117.534 123.009 118.44 122.692 119.324 122.534 120.445 122.534 121.805 122.534 123.119 122.692 124.218 123.009 125.101 123.349 125.985 123.848 126.654 124.505 127.107 125.162 127.537 125.978 127.752 126.952 127.752 127.994 127.752 128.912 127.627 129.705 127.379 130.498 127.13 131.246 126.79 131.948 126.359L131.948 130.063C131.246 130.494 130.486 130.8 129.671 130.981 128.878 131.185 127.881 131.287 126.68 131.287ZM153.61 112.527 153.61 130.947 150.245 130.947 149.668 128.568 149.464 128.568C149.079 129.203 148.58 129.724 147.968 130.131 147.356 130.516 146.689 130.8 145.963 130.981 145.238 131.185 144.491 131.287 143.72 131.287 142.36 131.287 141.183 131.049 140.185 130.573 139.189 130.097 138.43 129.373 137.908 128.398 137.387 127.402 137.127 126.121 137.127 124.558L137.127 112.527 141.409 112.527 141.409 123.708C141.409 125.067 141.681 126.098 142.225 126.801 142.768 127.481 143.63 127.82 144.808 127.82 145.963 127.82 146.87 127.582 147.526 127.107 148.184 126.608 148.648 125.894 148.92 124.966 149.192 124.037 149.328 122.892 149.328 121.533L149.328 112.527 153.61 112.527ZM167.477 112.187C169.132 112.187 170.547 112.527 171.726 113.206 172.926 113.863 173.856 114.815 174.512 116.061 175.169 117.285 175.498 118.78 175.498 120.547L175.498 122.722 163.331 122.722C163.376 124.399 163.841 125.702 164.724 126.631 165.608 127.537 166.832 127.99 168.395 127.99 169.596 127.99 170.661 127.877 171.59 127.65 172.541 127.402 173.516 127.05 174.512 126.597L174.512 130.029C173.606 130.46 172.666 130.777 171.692 130.981 170.717 131.185 169.551 131.287 168.191 131.287 166.401 131.287 164.803 130.947 163.399 130.267 162.017 129.565 160.929 128.511 160.136 127.107 159.366 125.702 158.981 123.957 158.981 121.873 158.981 119.766 159.332 117.998 160.034 116.571 160.759 115.12 161.757 114.033 163.025 113.308 164.294 112.561 165.778 112.187 167.477 112.187ZM167.477 115.347C166.345 115.347 165.415 115.721 164.69 116.469 163.988 117.194 163.569 118.281 163.433 119.732L171.352 119.732C171.352 118.871 171.205 118.111 170.91 117.455 170.638 116.798 170.219 116.288 169.652 115.925 169.086 115.54 168.361 115.347 167.477 115.347ZM190.672 112.187C192.733 112.187 194.342 112.719 195.498 113.784 196.676 114.849 197.265 116.571 197.265 118.95L197.265 130.947 192.983 130.947 192.983 119.8C192.983 118.417 192.711 117.387 192.167 116.707 191.624 116.004 190.762 115.653 189.584 115.653 187.862 115.653 186.684 116.197 186.05 117.285 185.415 118.349 185.098 119.902 185.098 121.941L185.098 130.947 180.816 130.947 180.816 112.527 184.113 112.527 184.724 114.94 184.962 114.94C185.37 114.305 185.868 113.784 186.458 113.376 187.046 112.968 187.703 112.673 188.429 112.493 189.154 112.289 189.901 112.187 190.672 112.187ZM210.758 127.854C211.302 127.854 211.823 127.809 212.321 127.718 212.82 127.605 213.285 127.481 213.715 127.345L213.715 130.539C213.262 130.743 212.673 130.913 211.947 131.049 211.223 131.208 210.464 131.287 209.67 131.287 208.629 131.287 207.677 131.117 206.815 130.777 205.978 130.414 205.298 129.803 204.776 128.942 204.278 128.081 204.029 126.88 204.029 125.339L204.029 115.755 201.548 115.755 201.548 113.886 204.266 112.391 205.626 108.482 208.311 108.482 208.311 112.527 213.545 112.527 213.545 115.755 208.311 115.755 208.311 125.305C208.311 126.166 208.538 126.812 208.991 127.243 209.444 127.65 210.033 127.854 210.758 127.854ZM228.08 112.187C228.352 112.187 228.669 112.198 229.031 112.221 229.393 112.244 229.699 112.289 229.949 112.357L229.575 116.333C229.371 116.288 229.099 116.254 228.76 116.231 228.442 116.186 228.159 116.163 227.91 116.163 227.23 116.163 226.572 116.276 225.939 116.503 225.327 116.707 224.771 117.024 224.273 117.455 223.798 117.862 223.412 118.395 223.118 119.052 222.846 119.709 222.71 120.49 222.71 121.397L222.71 130.947 218.428 130.947 218.428 112.527 221.724 112.527 222.336 115.721 222.54 115.721C222.902 115.065 223.356 114.475 223.9 113.954 224.443 113.41 225.066 112.979 225.769 112.662 226.494 112.346 227.264 112.187 228.08 112.187ZM241.04 112.187C243.419 112.187 245.22 112.707 246.443 113.75 247.69 114.77 248.313 116.378 248.313 118.576L248.313 130.947 245.288 130.947 244.438 128.398 244.302 128.398C243.782 129.055 243.238 129.611 242.671 130.063 242.127 130.494 241.492 130.8 240.768 130.981 240.065 131.185 239.204 131.287 238.185 131.287 237.097 131.287 236.112 131.083 235.228 130.675 234.367 130.267 233.688 129.645 233.189 128.806 232.69 127.945 232.441 126.869 232.441 125.577 232.441 123.674 233.132 122.247 234.514 121.295 235.919 120.32 238.038 119.789 240.87 119.698L244.064 119.596 244.064 118.678C244.064 117.5 243.782 116.662 243.215 116.163 242.648 115.664 241.855 115.415 240.836 115.415 239.907 115.415 239.011 115.551 238.151 115.823 237.29 116.095 236.451 116.412 235.636 116.775L234.276 113.784C235.183 113.308 236.214 112.923 237.369 112.629 238.548 112.334 239.771 112.187 241.04 112.187ZM241.821 122.315C239.941 122.383 238.638 122.711 237.913 123.3 237.188 123.867 236.825 124.637 236.825 125.611 236.825 126.472 237.086 127.096 237.607 127.481 238.128 127.865 238.797 128.058 239.612 128.058 240.859 128.058 241.912 127.707 242.773 127.005 243.634 126.28 244.064 125.214 244.064 123.81L244.064 122.247 241.821 122.315ZM261.753 112.527 266.409 112.527 270.08 122.926C270.239 123.379 270.375 123.821 270.488 124.252 270.624 124.66 270.738 125.078 270.828 125.509 270.919 125.94 270.987 126.37 271.032 126.801L271.167 126.801C271.258 126.234 271.394 125.611 271.575 124.932 271.779 124.252 271.983 123.583 272.187 122.926L275.722 112.527 280.344 112.527 272.493 133.394C272.04 134.595 271.462 135.626 270.76 136.487 270.08 137.348 269.264 137.993 268.313 138.424 267.384 138.877 266.33 139.104 265.152 139.104 264.608 139.104 264.121 139.07 263.69 139.002 263.283 138.957 262.921 138.9 262.603 138.832L262.603 135.433C262.853 135.478 263.147 135.524 263.487 135.569 263.849 135.614 264.223 135.637 264.608 135.637 265.311 135.637 265.912 135.49 266.409 135.195 266.931 134.923 267.361 134.539 267.701 134.04 268.064 133.541 268.359 132.986 268.585 132.375L269.128 130.879 261.753 112.527ZM300.004 131.287C297.874 131.287 296.14 130.494 294.804 128.908 293.489 127.3 292.833 124.921 292.833 121.771 292.833 118.621 293.501 116.242 294.838 114.634 296.174 113.002 297.931 112.187 300.106 112.187 301.012 112.187 301.805 112.312 302.485 112.561 303.188 112.787 303.787 113.104 304.286 113.512 304.785 113.92 305.204 114.373 305.544 114.872L305.747 114.872C305.68 114.555 305.612 114.067 305.544 113.41 305.476 112.753 305.442 112.142 305.442 111.575L305.442 105.118 309.724 105.118 309.724 130.947 306.393 130.947 305.612 128.534 305.442 128.534C305.102 129.033 304.683 129.497 304.184 129.928 303.685 130.335 303.097 130.664 302.417 130.913 301.737 131.162 300.932 131.287 300.004 131.287ZM301.295 127.82C302.882 127.82 304.003 127.368 304.66 126.461 305.317 125.554 305.646 124.184 305.646 122.349L305.646 121.805C305.646 119.811 305.329 118.293 304.694 117.251 304.082 116.208 302.927 115.687 301.227 115.687 299.936 115.687 298.939 116.231 298.237 117.319 297.534 118.383 297.183 119.891 297.183 121.839 297.183 123.787 297.534 125.271 298.237 126.291 298.939 127.311 299.959 127.82 301.295 127.82ZM323.535 112.187C325.914 112.187 327.716 112.707 328.939 113.75 330.186 114.77 330.808 116.378 330.808 118.576L330.808 130.947 327.784 130.947 326.934 128.398 326.798 128.398C326.277 129.055 325.733 129.611 325.167 130.063 324.623 130.494 323.989 130.8 323.263 130.981 322.562 131.185 321.7 131.287 320.68 131.287 319.593 131.287 318.607 131.083 317.724 130.675 316.863 130.267 316.183 129.645 315.685 128.806 315.187 127.945 314.937 126.869 314.937 125.577 314.937 123.674 315.629 122.247 317.01 121.295 318.415 120.32 320.534 119.789 323.365 119.698L326.56 119.596 326.56 118.678C326.56 117.5 326.277 116.662 325.71 116.163 325.145 115.664 324.351 115.415 323.331 115.415 322.403 115.415 321.508 115.551 320.646 115.823 319.786 116.095 318.947 116.412 318.132 116.775L316.772 113.784C317.679 113.308 318.709 112.923 319.865 112.629 321.043 112.334 322.267 112.187 323.535 112.187ZM324.317 122.315C322.437 122.383 321.134 122.711 320.409 123.3 319.684 123.867 319.321 124.637 319.321 125.611 319.321 126.472 319.582 127.096 320.103 127.481 320.624 127.865 321.292 128.058 322.108 128.058 323.354 128.058 324.408 127.707 325.269 127.005 326.13 126.28 326.56 125.214 326.56 123.81L326.56 122.247 324.317 122.315ZM356.553 115.755 352.101 115.755 352.101 130.947 347.819 130.947 347.819 115.755 344.862 115.755 344.862 113.716 347.819 112.493 347.819 111.235C347.819 109.649 348.067 108.403 348.566 107.497 349.064 106.59 349.79 105.944 350.741 105.559 351.693 105.152 352.814 104.948 354.106 104.948 355.012 104.948 355.827 105.027 356.553 105.186 357.278 105.321 357.878 105.48 358.354 105.661L357.267 108.856C356.881 108.743 356.451 108.641 355.975 108.55 355.521 108.437 355.024 108.38 354.48 108.38 353.664 108.38 353.063 108.641 352.679 109.162 352.293 109.683 352.101 110.408 352.101 111.337L352.101 112.527 356.553 112.527 356.553 115.755ZM367.955 112.187C370.334 112.187 372.136 112.707 373.359 113.75 374.606 114.77 375.228 116.378 375.228 118.576L375.228 130.947 372.204 130.947 371.354 128.398 371.218 128.398C370.697 129.055 370.154 129.611 369.587 130.063 369.043 130.494 368.408 130.8 367.683 130.981 366.981 131.185 366.12 131.287 365.101 131.287 364.013 131.287 363.027 131.083 362.144 130.675 361.283 130.267 360.603 129.645 360.105 128.806 359.606 127.945 359.357 126.869 359.357 125.577 359.357 123.674 360.048 122.247 361.43 121.295 362.834 120.32 364.954 119.789 367.785 119.698L370.98 119.596 370.98 118.678C370.98 117.5 370.697 116.662 370.13 116.163 369.564 115.664 368.771 115.415 367.751 115.415 366.823 115.415 365.927 115.551 365.067 115.823 364.206 116.095 363.367 116.412 362.552 116.775L361.192 113.784C362.099 113.308 363.129 112.923 364.285 112.629 365.463 112.334 366.687 112.187 367.955 112.187ZM368.737 122.315C366.857 122.383 365.553 122.711 364.829 123.3 364.104 123.867 363.741 124.637 363.741 125.611 363.741 126.472 364.002 127.096 364.523 127.481 365.044 127.865 365.712 128.058 366.528 128.058 367.774 128.058 368.828 127.707 369.689 127.005 370.549 126.28 370.98 125.214 370.98 123.81L370.98 122.247 368.737 122.315ZM402.699 112.187C404.783 112.187 406.347 112.719 407.389 113.784 408.454 114.849 408.987 116.571 408.987 118.95L408.987 130.947 404.705 130.947 404.705 119.766C404.705 118.406 404.456 117.387 403.957 116.707 403.458 116.004 402.665 115.653 401.578 115.653 400.082 115.653 399.018 116.14 398.383 117.115 397.748 118.089 397.431 119.505 397.431 121.363L397.431 130.947 393.149 130.947 393.149 119.766C393.149 118.859 393.036 118.1 392.809 117.489 392.582 116.877 392.232 116.424 391.756 116.129 391.303 115.812 390.713 115.653 389.988 115.653 388.969 115.653 388.153 115.902 387.541 116.401 386.93 116.877 386.499 117.58 386.25 118.508 386.001 119.437 385.876 120.581 385.876 121.941L385.876 130.947 381.594 130.947 381.594 112.527 384.891 112.527 385.502 114.94 385.74 114.94C386.125 114.305 386.59 113.784 387.134 113.376 387.7 112.968 388.323 112.673 389.003 112.493 389.706 112.289 390.407 112.187 391.11 112.187 392.492 112.187 393.659 112.425 394.611 112.9 395.562 113.353 396.276 114.067 396.752 115.042L397.092 115.042C397.658 114.045 398.451 113.319 399.471 112.866 400.513 112.414 401.589 112.187 402.699 112.187ZM419.634 112.527 419.634 130.947 415.352 130.947 415.352 112.527 419.634 112.527ZM417.493 105.423C418.127 105.423 418.683 105.593 419.159 105.933 419.634 106.25 419.872 106.828 419.872 107.667 419.872 108.482 419.634 109.071 419.159 109.434 418.683 109.774 418.127 109.944 417.493 109.944 416.836 109.944 416.27 109.774 415.794 109.434 415.34 109.071 415.114 108.482 415.114 107.667 415.114 106.828 415.34 106.25 415.794 105.933 416.27 105.593 416.836 105.423 417.493 105.423ZM430.391 130.947 426.109 130.947 426.109 105.118 430.391 105.118 430.391 130.947ZM441.149 112.527 441.149 130.947 436.867 130.947 436.867 112.527 441.149 112.527ZM439.008 105.423C439.642 105.423 440.197 105.593 440.673 105.933 441.149 106.25 441.387 106.828 441.387 107.667 441.387 108.482 441.149 109.071 440.673 109.434 440.197 109.774 439.642 109.944 439.008 109.944 438.351 109.944 437.784 109.774 437.308 109.434 436.856 109.071 436.629 108.482 436.629 107.667 436.629 106.828 436.856 106.25 437.308 105.933 437.784 105.593 438.351 105.423 439.008 105.423ZM454.965 112.187C457.344 112.187 459.146 112.707 460.369 113.75 461.615 114.77 462.238 116.378 462.238 118.576L462.238 130.947 459.214 130.947 458.364 128.398 458.228 128.398C457.706 129.055 457.162 129.611 456.597 130.063 456.053 130.494 455.418 130.8 454.693 130.981 453.991 131.185 453.13 131.287 452.11 131.287 451.023 131.287 450.037 131.083 449.154 130.675 448.292 130.267 447.612 129.645 447.114 128.806 446.616 127.945 446.367 126.869 446.367 125.577 446.367 123.674 447.057 122.247 448.44 121.295 449.844 120.32 451.962 119.789 454.795 119.698L457.99 119.596 457.99 118.678C457.99 117.5 457.706 116.662 457.14 116.163 456.574 115.664 455.781 115.415 454.761 115.415 453.832 115.415 452.937 115.551 452.076 115.823 451.215 116.095 450.377 116.412 449.561 116.775L448.202 113.784C449.108 113.308 450.139 112.923 451.295 112.629 452.472 112.334 453.696 112.187 454.965 112.187ZM455.747 122.315C453.866 122.383 452.563 122.711 451.839 123.3 451.113 123.867 450.751 124.637 450.751 125.611 450.751 126.472 451.011 127.096 451.533 127.481 452.053 127.865 452.722 128.058 453.538 128.058 454.783 128.058 455.837 127.707 456.699 127.005 457.559 126.28 457.99 125.214 457.99 123.81L457.99 122.247 455.747 122.315Z" fill="#4EBD88" transform="matrix(1.00041 0 0 1 198.498 283.062)"/><path d="M50.6867 34.7686 16.1247 34.7686 16.1247 5.6037 3.11788 5.6037 3.11788 73.0684 16.1247 73.0684 16.1247 43.7024 50.6867 43.7024 50.6867 73.0684 63.6936 73.0684 63.6936 5.6037 50.6867 5.6037 50.6867 34.7686Z" fill="#4EBD88" transform="matrix(1.00041 0 0 1 198.498 283.062)"/><path d="M121.218 43.5011C121.41 47.299 120.985 51.1029 119.961 54.7648 119.099 56.9597 117.691 58.8982 115.871 60.3966 111.882 63.5107 106.915 65.1032 101.859 64.8887 98.2385 64.974 94.6495 64.2045 91.3826 62.6427 88.6111 61.354 86.2795 59.279 84.6781 56.6756 83.2366 54.1949 82.5159 49.7811 82.5159 43.4341L82.5159 5.2181 72.8948 5.2181 72.8948 43.4174C72.7513 47.4301 73.1117 51.4451 73.9675 55.3682 74.5782 57.6397 75.5094 59.8126 76.7331 61.8213 77.8559 63.5949 79.2276 65.1981 80.8062 66.5816 86.1586 71.1519 93.2096 73.4426 101.959 73.4537 110.708 73.4649 117.692 71.1631 122.91 66.5481 124.497 65.1861 125.874 63.5992 127.001 61.8381 128.236 59.7839 129.179 57.5665 129.8 55.2509 130.678 51.4045 131.055 47.4609 130.923 43.5179L130.923 5.2181 121.218 5.2181 121.218 43.5011Z" fill="#4EBD88" transform="matrix(1.00041 0 0 1 198.498 283.062)"/><path d="M165.653 5.4192 136.673 73.2526 146.595 73.2526 154.975 53.2563 183.755 53.2563 192.756 73.2526 202.645 73.2526 172.474 5.4192 165.653 5.4192ZM158.948 44.6744 169.005 20.2363 179.883 44.6744 158.948 44.6744Z" fill="#4EBD88" transform="matrix(1.00041 0 0 1 198.498 283.062)"/><path d="M221.367 57.8498C218.889 55.5151 216.934 52.6805 215.634 49.5337 214.333 46.387 213.717 42.9998 213.824 39.5966 213.741 36.1759 214.379 32.7761 215.699 29.6191 217.019 26.4622 218.991 23.6195 221.485 21.2764 224.051 18.8481 227.072 16.951 230.374 15.6939 233.677 14.4369 237.194 13.8448 240.726 13.9517 248.891 14.1179 256.868 16.4302 263.856 20.6563L263.856 10.3312C256.435 6.92006 248.405 5.03345 240.24 4.78319 235.473 4.66178 230.729 5.48823 226.284 7.21461 221.838 8.94098 217.78 11.5329 214.343 14.84 210.946 17.9961 208.253 21.8346 206.442 26.1038 204.631 30.373 203.743 34.9768 203.835 39.6134 203.798 45.6696 205.383 51.625 208.427 56.8608 211.383 62.0698 215.684 66.3886 220.881 69.3649 226.759 72.5441 233.375 74.1113 240.056 73.9072 248.589 74.0793 257.026 72.0839 264.578 68.1078L264.578 57.4643C257.505 62.2682 249.175 64.8855 240.626 64.9902 237.104 65.1238 233.59 64.562 230.286 63.3368 226.981 62.1116 223.951 60.2471 221.367 57.8498Z" fill="#4EBD88" transform="matrix(1.00041 0 0 1 198.498 283.062)"/><path d="M327.3 33.9305 289.402 33.9305 289.402 4.76566 279.748 4.76566 279.748 73.8897 289.402 73.8897 289.402 44.5405 327.3 44.5405 327.3 73.8897 336.955 73.8897 336.955 4.76566 327.3 4.76566 327.3 33.9305Z" fill="#4EBD88" transform="matrix(1.00041 0 0 1 198.498 283.062)"/><path d="M365.548 4.41424 355.541 4.41424 355.541 74.259 365.548 74.259 365.548 4.41424Z" fill="#4EBD88" transform="matrix(1.00041 0 0 1 198.498 283.062)"/><path d="M382.161 13.2632 406.113 13.2632 406.113 74.3083 416.17 74.3083 416.17 13.2632 440.524 13.2632 440.524 4.36299 382.161 4.36299 382.161 13.2632Z" fill="#4EBD88" transform="matrix(1.00041 0 0 1 198.498 283.062)"/><path d="M554.803 55.8028C554.803 55.4675 554.803 55.1323 554.803 54.7971 554.803 47.1874 550.686 40.9298 542.45 36.0243L535.075 31.6663C532.386 30.2152 529.952 28.3357 527.868 26.1016 526.671 24.7623 525.911 23.0901 525.689 21.3078 525.81 20.3428 526.139 19.4158 526.654 18.5908 527.17 17.7659 527.859 17.063 528.672 16.5308 530.941 15.0028 533.632 14.2287 536.365 14.3183 541.953 14.3183 547.182 16.6537 552.054 21.3246L552.054 8.68646C547.487 5.57001 542.08 3.91572 536.55 3.94299 531.296 3.73089 526.159 5.52908 522.186 8.97141 520.372 10.5912 518.936 12.5898 517.981 14.8259 517.024 17.062 516.572 19.4808 516.654 21.9112 516.654 22.1124 516.654 22.3135 516.654 22.5146 516.654 22.7157 516.654 23.2353 516.654 23.5874 516.604 26.9491 517.633 30.2386 519.588 32.9738 522.284 36.359 525.622 39.1786 529.41 41.2706L536.751 45.7291C542.26 49.1708 545.205 52.7857 545.585 56.5737 545.496 57.6435 545.189 58.6835 544.681 59.6293 544.173 60.575 543.476 61.4064 542.635 62.0715 540.501 63.7962 537.818 64.6948 535.075 64.6025 528.215 64.6025 522.18 61.2949 516.973 54.6797L516.973 68.6253C522.186 72.6451 528.593 74.8099 535.176 74.7767 540.357 75.0089 545.422 73.2039 549.289 69.7482 551.114 68.0664 552.552 66.0084 553.504 63.7165 554.456 61.4245 554.9 58.9532 554.803 56.4732 554.803 56.2721 554.803 56.071 554.803 55.8698L554.803 55.8028Z" fill="#4EBD88" transform="matrix(1.00041 0 0 1 198.498 283.062)"/><path d="M56.4524 1.09477 43.9819 1.09477 43.9819 30.0082 18.5213 30.0082 18.5213 6.08967 16.577 4.41353 13.1242 1.63114 12.4705 1.09477 0 1.09477 0 71.9452 5.02842 78.0799 18.5716 78.0799 18.5716 47.9093 43.9819 47.9093 43.9819 71.9452 49.0103 78.0799 62.5871 78.0799 62.5871 6.08967 57.1061 1.63114 56.4524 1.09477ZM55.916 71.4927 45.7251 71.4927 45.7251 41.9591 11.8838 41.9591 11.8838 71.4424 1.67614 71.4424 1.67614 2.83796 11.8838 2.83796 11.8838 31.7514 45.7251 31.7514 45.7251 2.83796 55.916 2.83796 55.916 71.4927Z" transform="matrix(1.00041 0 0 1 198.498 283.062)"/><path d="M127.202 1.63114 126.548 1.09477 114.262 1.09477 114.262 42.9983C114.324 45.6762 114.048 48.3512 113.44 50.9599 112.943 52.8195 112.026 54.54 110.758 55.9884 109.525 57.4145 107.991 58.5496 106.267 59.3118 104.542 60.0741 102.671 60.4446 100.785 60.3966 98.2346 60.3912 95.7326 59.6963 93.5445 58.3852 91.1933 56.9942 89.3802 54.8503 88.3987 52.3009 87.39 49.199 86.9693 45.936 87.1584 42.6799L87.1584 6.29081 82.1299 1.73171 81.9624 1.63114 81.3589 1.09477 68.7208 1.09477 68.7208 45.5795C68.5157 50.7328 69.2076 55.8825 70.7657 60.7989 72.8114 66.1879 76.5072 70.7928 81.3254 73.9566 86.8676 77.532 93.3729 79.3221 99.9636 79.0856 105.219 79.1225 110.427 78.0844 115.267 76.035 120.035 73.9871 124.175 70.714 127.269 66.548 129.219 63.9848 130.674 61.08 131.559 57.983 132.573 53.9636 133.03 49.8239 132.917 45.6801L132.917 6.29081 132.096 5.62035 127.202 1.63114ZM126.246 44.6242C126.246 51.3287 125.273 56.5415 123.346 60.2123 121.214 64.0396 117.978 67.1355 114.061 69.0958 110.895 70.7217 107.458 71.7502 103.92 72.1296 102.313 72.3287 100.695 72.4239 99.0758 72.4146 89.9576 72.4146 82.7725 69.5539 77.5206 63.8327 74.9292 61.1447 73.0209 57.874 71.9558 54.2955 70.8147 49.6295 70.2906 44.8339 70.397 40.0315L70.397 2.83795 80.4538 2.83795 80.4538 42.177C80.4538 53.9323 85.0018 60.6369 94.0976 62.2906 95.6747 62.5676 97.2734 62.7023 98.8747 62.693 106.127 62.693 111.205 59.8994 114.111 54.3123 115.339 51.988 115.954 48.3117 115.954 43.2832L115.954 2.83795 126.196 2.83795 126.246 44.6242Z" transform="matrix(1.00041 0 0 1 198.498 283.062)"/><path d="M173.984 0.592534 161.346 0.592534 134.092 72.3481 139.774 78.0805 151.859 78.0805 157.406 63.1461 182.213 63.1461 185.918 73.3874 191.248 78.0805 207.372 78.0805 181.023 4.14596 173.984 0.592534ZM187.007 71.443 181.979 56.8103 152.763 56.8103 147.216 71.443 136.287 71.443 136.824 70.0518 162.585 2.3022 173.514 2.3022 173.732 2.90561 197.785 71.443 187.007 71.443Z" transform="matrix(1.00041 0 0 1 198.498 283.062)"/><path d="M167.883 17.2196 157.826 43.3339 157.725 43.5685 156.284 47.3231 178.51 47.3231 177.202 43.6356 168.822 19.9852 167.883 17.2196ZM175.241 43.6356 175.928 45.647 163.894 45.647 164.632 43.6356 170.129 28.7682 175.241 43.6356Z" transform="matrix(1.00041 0 0 1 198.498 283.062)"/><path d="M246.276 60.8993C243.416 61.0368 240.558 60.5823 237.881 59.5642 235.204 58.5462 232.767 56.9863 230.721 54.9825 228.764 52.9323 227.24 50.5087 226.241 47.8563 225.241 45.2038 224.787 42.3772 224.905 39.5452 224.905 32.6619 227.084 27.2368 231.442 23.2699 233.243 21.6244 235.335 20.3285 237.61 19.4483 240.332 18.516 243.2 18.0844 246.075 18.1745 255.276 18.3713 264.303 20.7129 272.44 25.0131L272.44 8.13437 267.144 3.40765C260.271 1.19376 253.095 0.0628011 245.874 0.0553761 236.134-0.237557 226.649 3.1976 219.357 9.65966 218.771 10.196 218.184 10.7492 217.681 11.3358 210.451 18.6662 206.841 28.0693 206.852 39.5452 206.782 45.2291 207.824 50.872 209.92 56.1558 211.773 60.8873 214.633 65.1596 218.301 68.6766 219.611 69.8984 221.012 71.019 222.491 72.0288 224.999 73.7603 227.706 75.184 230.554 76.2695 235.368 78.1106 240.484 79.0372 245.639 79.0016 255.088 78.8535 264.432 76.9849 273.212 73.4871L273.212 61.6032 267.026 56.5748C260.39 59.1316 253.382 60.5921 246.276 60.8993ZM266.59 68.8945 265.132 69.3303C259.094 71.2499 252.812 72.2941 246.476 72.4311 242.661 72.4599 238.856 72.0209 235.146 71.1238 231.988 70.369 228.949 69.1846 226.112 67.6038 223.617 66.1606 221.309 64.4155 219.239 62.4078 217.315 60.5482 215.627 58.4599 214.211 56.1893 211.721 52.0963 209.99 47.5881 209.099 42.8808 208.742 40.9398 208.557 38.9711 208.546 36.9976 208.55 33.5415 209.076 30.1057 210.104 26.8066 211.152 23.3981 212.736 20.1786 214.798 17.2693 216.89 14.2719 219.402 11.5907 222.256 9.30767 223.928 8.00441 225.731 6.88078 227.637 5.95539 229.23 5.15584 230.877 4.46699 232.565 3.89374 236.67 2.48259 240.979 1.75221 245.32 1.73152 252.259 1.70891 259.162 2.7201 265.803 4.73181L265.803 15.1407C265.317 14.9897 264.847 14.8389 264.378 14.7217 258.491 12.8166 252.361 11.7667 246.176 11.604 243.272 11.5778 240.377 11.9214 237.56 12.6264 235.588 13.107 233.68 13.8216 231.877 14.7551 231.525 14.9395 231.191 15.1407 230.855 15.3418 229.049 16.4495 227.393 17.7845 225.928 19.3142 224.581 20.6983 223.416 22.2471 222.458 23.9236 221.599 25.4842 220.893 27.123 220.346 28.818 219.844 30.3117 219.458 31.8413 219.189 33.3938 218.982 34.6403 218.876 35.9015 218.871 37.1651 218.876 38.4176 218.983 39.6677 219.189 40.9029 219.457 42.4408 219.849 43.9542 220.363 45.4285 220.939 47.1121 221.656 48.7438 222.508 50.3061 223.46 52.0015 224.626 53.5676 225.978 54.9657 227.433 56.4816 229.071 57.8103 230.855 58.9214 232.906 60.1652 235.132 61.0919 237.459 61.6703 240.239 62.3955 243.102 62.7506 245.974 62.7263 251.946 62.5675 257.862 61.5167 263.524 59.6086 264.059 59.4578 264.596 59.2901 265.199 59.089 265.803 58.8879 266.171 58.7874 266.657 58.6197L266.59 68.8945Z" transform="matrix(1.00041 0 0 1 198.498 283.062)"/><path d="M322.171 1.09413 322.171 30.0076 296.677 30.0076 296.677 6.08903 290.626 1.06061 278.24 1.06061 278.24 71.9445 280.502 74.727 283.218 78.0793 296.677 78.0793 296.677 47.9087 322.137 47.9087 322.137 71.9445 322.607 72.5145 324.4 74.727 327.132 78.0793 340.709 78.0793 340.709 6.08903 334.608 1.06061 322.171 1.09413ZM334.105 71.492 323.914 71.492 323.914 41.9585 290.056 41.9585 290.056 71.4417 279.999 71.4417 279.999 2.83731 290.056 2.83731 290.056 31.7508 323.914 31.7508 323.914 2.83731 334.105 2.83731 334.105 71.492Z" transform="matrix(1.00041 0 0 1 198.498 283.062)"/><path d="M350.313 1.02743 350.313 72.1293 355.125 78.0796 368.751 78.0796 368.751 6.00556 362.8 0.977144 350.313 1.02743ZM362.047 71.4254 351.99 71.4254 351.99 2.70357 362.047 2.70357 362.047 71.4254Z" transform="matrix(1.00041 0 0 1 198.498 283.062)"/><path d="M376.494 1.0279 376.494 13.6157 381.992 19.4152 401.05 19.4152 401.05 72.1298 406.196 78.0801 419.805 78.0801 419.805 19.4152 444.948 19.4152 444.948 6.30775 438.747 1.0279 376.494 1.0279ZM438.26 12.7608 413.118 12.7608 413.118 71.4258 402.776 71.4258 402.776 12.7608 378.254 12.7608 378.254 2.70405 438.26 2.70405 438.26 12.7608Z" transform="matrix(1.00041 0 0 1 198.498 283.062)"/><path d="M562.378 52.6358C562.264 51.5861 562.016 50.5553 561.64 49.5685L560.602 46.9872C560.177 46.0469 559.611 45.1766 558.925 44.406 558.088 43.3668 557.417 42.579 556.947 42.0258 556.11 41.098 555.215 40.2247 554.265 39.4111L551.231 36.7125C550.562 36.1091 549.321 35.0363 547.528 33.5111 546.723 32.8574 545.852 32.0695 544.779 31.198 543.705 30.3265 542.985 29.6559 542.482 29.2537L540.807 27.7787C540.335 27.3735 539.898 26.9306 539.499 26.4545 539.253 26.1416 538.984 25.7729 538.694 25.3483 538.439 24.995 538.251 24.5971 538.141 24.1749 538.058 23.784 538.018 23.3848 538.024 22.9849 537.992 22.2263 538.15 21.4717 538.483 20.7898 538.817 20.1078 539.316 19.5199 539.935 19.0795 541.424 18.1031 543.183 17.6167 544.963 17.6884 547.299 17.845 549.58 18.4721 551.667 19.5321L552.338 19.8338 552.556 19.9343 559.83 23.1692 559.83 7.73204 554.198 2.70362C552.207 1.83409 550.128 1.18219 547.997 0.759292 545.793 0.290688 543.546 0.0436259 541.292 0.0217905 538.432-0.107658 535.574 0.340641 532.89 1.33993 530.206 2.33922 527.75 3.86901 525.671 5.838 525.209 6.28246 524.772 6.75252 524.363 7.24595 521.243 11.0056 519.599 15.7719 519.737 20.6551 519.711 22.7976 519.902 24.9372 520.307 27.0412 520.639 28.7685 521.255 30.4283 522.134 31.9523 522.797 33.1408 523.57 34.2634 524.447 35.3045 525.369 36.3528 526.341 37.3542 527.363 38.3048 528.481 39.344 530.649 41.1208 533.867 43.635L535.158 44.6407C537.483 46.3649 539.669 48.2705 541.694 50.3396 542.87 51.5051 543.553 53.0767 543.605 54.731 543.611 55.4565 543.445 56.1731 543.123 56.8226 542.799 57.4722 542.327 58.0362 541.745 58.4688 540.141 59.5772 538.209 60.1091 536.263 59.9774 531.403 59.9774 526.078 57.9939 520.29 54.0271L520.29 69.1123 522.587 72.9172 524.983 76.8561C529.416 78.3077 534.046 79.0654 538.711 79.1021 541.982 79.095 545.219 78.434 548.232 77.1577 551.069 76.0087 553.646 74.2984 555.807 72.1294 557.904 70.0066 559.577 67.5035 560.735 64.7543 561.925 61.9558 562.535 58.9452 562.529 55.9043 562.529 54.7813 562.479 53.6918 562.378 52.6358ZM555.053 60.3964C554.104 62.5687 552.737 64.5335 551.03 66.1791 549.175 67.9508 546.984 69.3335 544.586 70.246 542.188 71.1585 539.632 71.5823 537.068 71.4924 531.856 71.4864 526.707 70.3424 521.983 68.1402L521.983 57.5134C526.201 60.2085 531.091 61.6607 536.096 61.7038 538.766 61.8804 541.414 61.1088 543.571 59.5248 544.602 58.696 545.375 57.5915 545.801 56.3401 546.061 55.5392 546.191 54.7016 546.186 53.8594 546.186 49.3003 542.89 44.5624 536.297 39.6458 532.124 36.7718 528.392 33.3048 525.218 29.3542 523.024 26.4111 521.847 22.8341 521.866 19.1634 521.788 16.7916 522.243 14.4327 523.198 12.2599 524.151 10.0873 525.581 8.15633 527.38 6.60902 528.094 5.99712 528.849 5.43698 529.643 4.93288 533.159 2.73058 537.246 1.61675 541.392 1.73145 545.391 1.80182 549.338 2.63232 553.026 4.17862L553.026 14.5707 552.64 14.4031C549.096 12.6859 545.228 11.7431 541.292 11.6374 539.221 11.5651 537.171 12.0762 535.376 13.1124 534.994 13.3348 534.635 13.593 534.302 13.8835 533.5 14.4924 532.846 15.2743 532.388 16.171 531.929 17.0676 531.678 18.056 531.654 19.0627 531.746 21.269 532.689 23.3538 534.286 24.879 537.28 27.8387 540.509 30.5517 543.94 32.9915 547.697 35.6636 550.958 38.9705 553.578 42.7633 555.514 45.8315 556.521 49.3939 556.478 53.0214 556.514 55.5514 556.029 58.0618 555.053 60.3964Z" transform="matrix(1.00041 0 0 1 198.498 283.062)"/><path d="M464.592 64.9232C460.956 60.8669 456.313 58.5371 451.937 55.4027 449.038 53.3243 443.104 48.9831 443.926 44.7927 444.411 42.3456 447.194 40.8874 449.256 39.9487 453.913 37.9814 458.852 36.765 463.889 36.345 468.917 35.8254 474.917 35.5739 478.656 39.4291 480.003 40.8557 481.093 42.5062 481.873 44.3067 483.587 48.7165 484.472 53.404 484.488 58.1348 484.673 62.8783 484.706 70.3371 480.7 73.7397 476.694 77.1422 471.599 72.6335 468.834 69.7001 467.341 68.1246 465.967 66.482 464.592 64.9232Z" fill="#4EBD88" fill-rule="evenodd" transform="matrix(1.00041 0 0 1 198.498 283.062)"/><path d="M479.794 42.9819C478.521 40.5516 477.028 37.6016 474.296 36.5791 473.871 36.2853 473.401 36.0592 472.905 35.9087 470.824 35.2392 468.655 34.8833 466.469 34.8527 462.915 34.7603 459.362 35.0638 455.876 35.7579 453.578 36.1895 451.306 36.7492 449.071 37.434 446.63 38.0664 444.284 39.0248 442.098 40.2834 439.132 42.2277 438.645 46.3007 439.852 49.4016 441.425 52.6548 443.897 55.3888 446.975 57.2795 450.11 59.5422 453.496 61.4866 456.714 63.632 459.932 65.7775 462.111 69.6159 464.659 72.7502 466.375 75.0057 468.427 76.9843 470.743 78.6167 471.854 79.346 473.138 79.7703 474.464 79.8467 475.792 79.9232 477.115 79.6493 478.303 79.0526 482.543 76.7898 483.331 70.7891 483.717 66.515 484.677 58.4572 483.316 50.2928 479.794 42.9819ZM480.934 59.1567C480.943 59.246 480.943 59.3357 480.934 59.4249 480.96 59.8044 480.96 60.1852 480.934 60.5647 480.938 63.3248 480.531 66.0701 479.727 68.7107 478.974 70.94 477.817 73.2028 475.319 73.7391 470.559 74.7616 465.966 70.1355 463.184 66.9173 461.742 65.2411 460.552 63.4141 458.96 61.8888 457.409 60.4484 455.725 59.1576 453.932 58.0338L453.395 57.6985C451.485 56.5085 449.523 55.3854 447.663 54.1115 445.832 52.9434 444.145 51.5652 442.634 50.005 442.051 49.3538 441.55 48.6332 441.143 47.8596 440.693 47.0409 440.489 46.1096 440.556 45.1777 440.824 42.4791 443.724 40.9371 445.92 39.9482 450.257 38.183 454.812 37.0103 459.462 36.4618L460.988 36.2774C466.419 35.6405 471.849 35.8919 475.017 37.9536 475.682 38.3949 476.253 38.9648 476.693 39.6297 478.352 42.232 479.459 45.1473 479.945 48.1947 480.694 51.6971 481.038 55.2742 480.968 58.855L480.934 59.1567Z" fill-rule="evenodd" transform="matrix(1.00041 0 0 1 198.498 283.062)"/><path d="M493.405 19.868C492.985 20.4546 492.499 21.058 491.979 21.6615 488.628 25.3992 483.432 28.5672 479.09 27.662 478.801 27.5995 478.516 27.5211 478.235 27.4273 477.298 27.1277 476.452 26.5979 475.772 25.8863 475.093 25.1747 474.602 24.3043 474.346 23.3544 472.184 15.5938 483.079 1.16225 492.533 4.59833 493.836 5.03406 494.941 5.9194 495.651 7.09578 497.712 10.5989 495.919 16.3648 493.405 19.868Z" fill="#4EBD88" fill-rule="evenodd" transform="matrix(1.00041 0 0 1 198.498 283.062)"/><path d="M508.592 35.3381C508.172 35.8577 507.753 36.3606 507.317 36.8131L506.848 37.3327C500.948 43.3836 494.411 43.7859 491.143 40.8191 490.838 40.5025 490.568 40.1541 490.338 39.7799 488.662 37.0645 488.863 32.7569 492.316 27.5441 492.859 26.7214 493.458 25.9373 494.109 25.1975 498.401 20.5713 504.032 18.4929 508.508 20.1691 509.236 20.4431 509.908 20.8526 510.485 21.3759 510.796 21.6448 511.063 21.9616 511.272 22.3145 513.553 25.8847 511.306 31.902 508.592 35.3381Z" fill="#4EBD88" fill-rule="evenodd" transform="matrix(1.00041 0 0 1 198.498 283.062)"/><path d="M506.814 57.7493 506.663 57.8833C504.78 59.4523 502.571 60.5822 500.196 61.1911 497.822 61.7999 495.341 61.8724 492.936 61.4032 491.777 61.1267 490.692 60.6068 489.751 59.8779 488.957 59.3098 488.309 58.5634 487.857 57.699 484.504 51.1787 499.807 43.0495 507.417 48.8154 508.389 49.4443 509.133 50.366 509.546 51.4469 510.2 53.5757 508.992 55.8552 506.814 57.7493Z" fill="#4EBD88" fill-rule="evenodd" transform="matrix(1.00041 0 0 1 198.498 283.062)"/><path d="M506.446 47.2399C505.857 46.7035 505.183 46.2676 504.451 45.9493 503.278 45.3838 502.011 45.0319 500.714 44.9101 503.793 43.3948 506.473 41.1789 508.542 38.4402 511.743 34.4007 513.922 28.9868 511.894 23.908 511.041 21.8538 509.475 20.1758 507.486 19.1814L506.815 18.8964C502.457 17.2202 498.016 18.8964 494.395 21.5447 494.425 21.496 494.453 21.4457 494.478 21.3939 494.696 21.0586 494.914 20.7066 495.116 20.3211 495.511 19.5866 495.852 18.8248 496.138 18.0416 497.303 14.9349 497.243 11.5015 495.971 8.43728 495.336 7.09951 494.455 5.89383 493.373 4.88387L493.272 4.7833C492.71 4.32845 492.096 3.94035 491.444 3.62677 490.909 3.37911 490.347 3.19353 489.769 3.07364 488.38 2.79683 486.95 2.79683 485.562 3.07364 483.497 3.52297 481.546 4.38999 479.829 5.62137 478.006 6.88296 476.37 8.39518 474.968 10.1134 472.845 12.7127 471.472 15.8422 470.996 19.1646 470.766 20.5918 470.823 22.0505 471.164 23.4555 471.685 26.0942 473.182 28.4397 475.354 30.026 476.386 30.5977 477.53 30.9354 478.707 31.0149 482.106 31.0215 485.413 29.9015 488.11 27.8303 488.277 27.6961 488.445 27.5956 488.596 27.4615 488.378 27.7967 488.16 28.1487 487.975 28.4839 485.059 33.5124 485.143 40.8371 490.154 44.6084 490.898 45.1504 491.716 45.5797 492.585 45.8823 492.836 45.966 493.088 46.0163 493.356 46.0834L493.876 46.1673C492.702 46.6067 491.578 47.1684 490.523 47.8434 489.091 48.6992 487.811 49.7867 486.735 51.0616 486.318 51.5567 485.947 52.0898 485.629 52.6538 485.088 53.8432 484.859 55.1509 484.965 56.4532 485.07 57.7555 485.507 59.0094 486.232 60.0959 487.01 61.4979 488.107 62.6977 489.433 63.5991 490.87 64.447 492.478 64.9637 494.139 65.1115 495.801 65.2593 497.474 65.0347 499.037 64.4539 500.002 64.1609 500.944 63.7967 501.853 63.3644L502.323 63.113C502.669 62.9479 503.004 62.7632 503.329 62.5598 505.885 61.2886 507.96 59.2248 509.245 56.6766 509.658 55.3989 509.758 54.0408 509.536 52.7164 509.314 51.3921 508.779 50.1405 507.972 49.0669 507.544 48.3946 507.031 47.7805 506.446 47.2399ZM476.963 27.6626C476.674 27.6001 476.389 27.5217 476.108 27.4279 475.165 27.1331 474.311 26.6054 473.626 25.8935 472.94 25.1817 472.445 24.3086 472.186 23.355 470.057 15.5944 480.952 1.16284 490.406 4.59892 491.708 5.03465 492.814 5.91999 493.524 7.09637 495.585 10.5995 493.792 16.3654 491.278 19.8686 490.859 20.4552 490.372 21.0586 489.852 21.6621 486.5 25.3998 481.305 28.551 476.963 27.6626ZM488.831 40.8203C488.526 40.5037 488.256 40.1553 488.026 39.7811 486.35 37.0657 486.55 32.7581 490.003 27.5453 490.546 26.7226 491.146 25.9385 491.797 25.1987 496.088 20.5726 501.719 18.4941 506.195 20.1703 506.924 20.4443 507.595 20.8538 508.173 21.3771 508.484 21.646 508.749 21.9628 508.96 22.3157 511.224 25.8189 508.96 31.8194 506.262 35.2723 505.843 35.7919 505.424 36.2947 504.988 36.7473L504.519 37.2669C498.636 43.3848 492.098 43.7871 488.831 40.8203ZM505.29 56.4084C505.236 56.4565 505.191 56.5132 505.156 56.576 503.466 58.3512 501.402 59.7302 499.116 60.6141 496.829 61.498 494.376 61.8648 491.931 61.6883 490.748 61.5403 489.607 61.1525 488.579 60.5484 487.725 60.0712 486.992 59.4064 486.434 58.6041 482.41 52.503 496.49 42.6473 504.871 47.4746 505.889 47.9949 506.711 48.8296 507.217 49.8547 508.156 51.8661 507.234 54.2797 505.29 56.4084Z" fill-rule="evenodd" transform="matrix(1.00041 0 0 1 198.498 283.062)"/><path d="M471.08 16.0299C470.964 19.8513 469.637 23.537 467.291 26.5561 466.065 28.2545 464.225 29.4087 462.162 29.7743 461.326 29.8911 460.473 29.8401 459.656 29.6242 458.839 29.4084 458.073 29.0321 457.402 28.5172 456.532 27.7898 455.848 26.8644 455.408 25.8186 454.276 22.5015 454.413 18.883 455.793 15.6612 456.319 14.0992 457.094 12.633 458.09 11.32 459.293 9.72954 461.032 8.62818 462.984 8.21912 463.92 8.01892 464.887 8.01076 465.826 8.19515 466.765 8.37954 467.657 8.75264 468.448 9.29186 468.601 9.39989 468.747 9.51746 468.884 9.64384 469.681 10.4919 470.29 11.4998 470.669 12.6008 471.047 13.7018 471.187 14.8707 471.08 16.0299Z" fill="#4EBD88" fill-rule="evenodd" transform="matrix(1.00041 0 0 1 198.498 283.062)"/><path d="M469.838 16.0125C469.739 14.3371 469.282 12.7024 468.498 11.2188 467.718 9.86004 466.573 8.74717 465.192 8.00649 463.811 7.2658 462.25 6.92696 460.687 7.02844 460.347 7.05152 460.01 7.10766 459.681 7.19605 456.329 8.11793 453.932 11.487 452.826 14.7052 451.15 19.4654 451.032 25.5163 453.597 29.9748 454.319 31.3987 455.553 32.4971 457.051 33.0502 458.55 33.6035 460.201 33.5706 461.676 32.9583 466.554 30.9805 469.102 25.4995 469.738 20.5549 469.738 20.1191 469.838 19.7 469.872 19.2642 469.944 18.1811 469.933 17.094 469.838 16.0125ZM463.52 27.2595C462.53 28.4407 461.203 29.2892 459.714 29.6898L459.614 29.6898C458.673 29.8535 457.703 29.7309 456.831 29.3379 450.563 26.4884 452.256 14.9734 457.401 10.012 458.448 8.95089 459.826 8.28208 461.307 8.11793 461.763 8.06728 462.224 8.06728 462.681 8.11793L462.799 8.11793C463.162 8.18154 463.521 8.27116 463.872 8.38611 470.325 10.8668 468.213 22.1305 463.52 27.2595Z" fill-rule="evenodd" transform="matrix(1.00041 0 0 1 198.498 283.062)"/></g></g></g></svg>